<svg width="230" height="72" viewBox="0 0 230 72" fill="none" xmlns="http://www.w3.org/2000/svg">
<g clip-path="url(#clip0_1316_4523)">
<path fill-rule="evenodd" clip-rule="evenodd" d="M50.5263 45.4105C49.3263 46.6737 51.6 44.2105 50.5263 45.4105V45.4105ZM74.9684 44.0211C74.9684 43.0737 75.5368 43.6421 75.3474 42.8842L67.3895 42.6316C67.5789 42.379 67.7684 42.0632 67.7053 41.6211C66.3789 41.4316 66 42.2526 64.6105 41.9369C65.6211 40.6737 66.5053 39.2842 67.7053 38.1474C67.5789 37.7053 66.8211 37.8948 66.3158 37.8316C67.7053 35.179 70.0421 33.5369 71.1158 30.6316C71.0526 30.1895 70.6105 30.5053 70.1684 30.5053C69.7895 28.9895 71.4947 27.7263 72.1263 26.5263C72.8842 25.2 73.6421 23.8105 74.2105 22.4211C74.2105 22.4211 73.7053 22.1053 73.2 22.4211C72.7579 20.2737 74.4 17.179 74.5895 14.5263C73.9579 13.579 71.8105 14.8421 71.8105 14.8421C71.8105 14.8421 68.0842 16.6105 66.6947 17.3053C66.6947 16.8 66.7579 16.3579 66.3789 16.2948C66.1263 16.2316 63.8526 18 63.6 18.379C63.221 18.5053 60.9474 20.8421 59.8105 21.7895C59.0526 21.8526 58.7368 21.5369 58.8 20.779C58.0421 21.4737 55.5789 24.3158 55.0105 24.8842C54.5053 25.3895 53.1789 26.9053 52.6105 26.5895C52.6105 24.3158 51.7263 26.5895 50.9053 26.5895V23.4948C50.6526 22.4842 50.1474 23.8105 49.5158 23.4948C49.6421 20.4 49.4526 17.5579 49.2 14.9053C48.6316 14.9053 48.3158 15.1579 48.1895 15.6C46.9895 13.0105 46.9895 9.22107 45.7895 6.6316C45.2211 6.6316 44.9053 6.88423 44.7789 7.32633C43.3263 4.86316 42.1895 2.14737 40.4211 0C38.5263 2.02106 37.7684 4.73685 36.5053 7.32633C36.1895 7.0737 35.6211 7.20002 35.4316 6.82107C35.0526 7.38949 34.7368 9.22107 34.3579 10.2316C33.7895 12 33.2842 13.7053 33.3474 15.6C33.0947 15.2842 32.5263 15.3474 32.2105 15.1579C31.0737 17.7474 31.5789 20.779 31.6421 23.4948C30.8211 23.6211 30.8842 22.8632 29.9368 23.179V26.9053C28.9263 26.0211 28.2316 24.8211 27.8526 26.4632C27.0947 26.4 22.9263 21.4105 22.6737 20.7158C22.2947 20.779 22.3579 21.3474 22.3579 21.7263C21.4105 21.8526 21.2211 20.8421 20.6526 20.3369C19.8947 19.7053 14.7158 16.0421 14.7158 16.0421C14.7158 16.0421 14.5895 16.8 14.7789 17.179C14.4 18 8.21053 14.3369 7.2 14.1474C6.37895 16.8 8.21053 19.8316 8.58947 22.4211C7.95789 22.4842 7.95789 22.3579 7.26316 22.4211C7.95789 25.9579 10.2316 27.4737 11.3053 30.6316H9.91579C11.5579 33.0316 13.1368 35.4316 15.0947 37.5158C14.9684 37.9579 14.2105 37.7684 13.7053 37.8316C14.5263 39.2842 15.4105 40.6737 16.8 41.6211C16.4211 42.2526 12.6947 41.8105 12.1263 41.8105C11.8105 41.8105 12 42.379 12.1263 42.4421L8.4 42.7579C7.95789 42.8211 6.44211 42.7579 6.25262 43.2632C6.18947 43.5158 6.50526 43.7053 6.50526 43.7053C6.50526 43.7053 2.02105 44.9684 0 45.7895C1.38947 47.4948 3.09474 48.8842 5.17895 49.8948C5.36842 50.6526 4.54736 50.4 4.4842 50.9053C5.55789 51.3474 8.4 52.6737 9.6 53.3053C9.72632 53.5579 9.72632 53.8737 9.34737 54.1895C9.41053 54.1263 13.0737 55.579 13.0737 55.6421C13.3263 55.7053 13.2632 56.0842 13.3895 56.0842C14.4632 56.3369 16.7368 56.5263 17.8737 56.7158C17.8105 57.2211 17.3053 57.2842 17.1789 57.7263C17.8105 58.0421 18.8842 57.8526 19.2632 58.4211C18.5053 58.5474 17.1789 59.7474 17.3684 60.2527C17.5579 60.6948 17.0526 61.0737 16.8 61.2632C15.7263 61.9579 14.5895 62.2737 14.1474 63.5369C15.4105 63.4737 14.0211 64.7369 13.7053 64.9895C12.9474 65.7474 11.7474 66.8211 11.7474 68.0211C13.8947 68.3369 14.7158 68.1474 16.9263 68.0211V69.0316C18.7579 68.9053 20.4632 67.4527 22.2947 67.6421C22.4842 67.6421 23.4316 67.9579 23.4316 67.9579C25.2 67.8948 26.9053 65.179 28.2316 66.9474C28.8 66.2526 31.4526 64.8632 32.0211 64.5474C32.7158 64.1053 33.4105 63.7263 34.0421 63.5369C34.4211 63.4105 34.7368 63.9158 35.1158 63.6632C35.6842 63.2211 36.2526 61.7684 36.8211 61.1369C37.8316 60.1263 37.2 60.7579 36.8842 61.0737C37.5158 60.4421 38.2737 59.9369 38.9053 59.3053C39.2211 58.9895 39.6 58.6737 39.7895 58.2316C40.0421 57.8527 40.1053 57.3474 40.1053 56.9053C40.1053 56.6526 40.2947 55.8948 40.1053 55.7053C39.8526 55.4527 39.0947 55.5158 38.7789 55.579C38.4 55.7053 34.4211 57.0948 33.6632 57.2842C33.1579 57.4105 31.8316 57.7895 31.5158 58.1684C31.2632 58.4842 31.3895 59.6842 30.6947 61.8316C30.6316 62.0842 30.3789 62.2737 30.2526 62.5263C29.8737 63.1579 29.3684 63.6632 28.8 64.1053C29.1789 63.6 29.8737 62.7158 30.2526 61.9579C30.5684 61.2 30.9474 59.6842 30.8842 58.2948C29.3053 58.8632 27.9158 59.3684 26.6526 60.1263C24.9474 61.1369 23.1789 62.0211 21.4105 62.9684C20.9053 63.2211 20.4 63.5369 19.8316 63.7895C19.5789 64.7369 19.4526 65.1158 19.3263 65.6211C19.0105 66.0632 18.6947 66.8211 18.5053 66.9474C18.7579 66.5684 18.8842 66.1895 19.1368 65.4316C19.3263 64.8632 19.3263 64.2948 19.3263 64.2316C19.1368 64.2948 18.7579 64.4211 18.1895 64.6737C18.0632 64.7369 15.2211 65.9369 15.0947 66C14.8421 66.0632 14.5895 66.1263 14.3368 66.2526C16.4211 65.1158 19.5158 63.6632 20.5263 62.9684C21.5368 62.2737 23.6211 61.1369 24.3158 60.6948C24.6316 60.5053 25.9579 60 25.5158 59.8105C24.9474 59.6842 23.4947 59.7474 23.2421 59.7474C22.2316 59.7474 20.8421 59.7474 19.8947 60C19.8947 60 20.0211 59.8105 20.9684 59.6211C21.0947 59.6211 24.6947 59.2421 25.9579 59.3053C26.9053 59.3053 29.8737 57.8526 31.2632 57.3474C32.6526 56.8421 37.7053 55.1369 37.8316 54.8842C36.8842 54.7579 35.4316 54.5053 34.4842 54.4421C33.5368 54.379 30.2526 53.9369 29.6211 53.8105C29.3053 53.7474 28.9895 53.6842 28.6737 53.6842C28.2947 53.6842 27.9158 53.6211 27.5368 53.5579C26.5263 53.4316 25.5158 53.2421 24.5684 52.9895C24.4421 52.9895 24.3158 52.9263 24.2526 52.9263C21.9789 52.4211 20.4 52.1684 19.3263 51.8526C17.1158 51.2211 16.9263 51.0316 16.6105 50.9684C14.7789 51.3474 12.7579 51.6632 10.6105 51.0948C10.6737 51.0948 10.6737 51.0316 10.7368 51.0316C11.2421 51.0316 11.6842 51.0948 12.5053 51.2211C13.3263 51.2842 15.5368 50.9053 15.9158 50.7158C15.7263 50.6526 15.1579 50.4 14.9684 50.4C14.8421 50.4 9.66316 48.5684 7.95789 47.8737C7.89474 47.8737 6.56842 47.4316 6.18947 47.2421C5.68421 46.9263 5.17894 46.6105 4.67368 46.2316C5.30526 46.4842 7.07368 47.4948 7.89474 47.4316C7.89474 47.3053 7.70526 46.9895 7.70526 46.9895C7.51579 46.6737 7.2 46.1684 6.88421 45.7263C7.07368 45.8526 7.26316 46.1053 7.51579 46.2316C7.76842 46.6737 8.02105 47.0527 8.27368 47.5579C9.34737 47.9369 10.4842 48.3158 11.6211 48.7579C12.4421 49.1369 13.3895 49.3895 14.2737 49.7053C14.5895 49.8316 14.9053 49.8948 15.2211 50.0211C15.7895 50.3369 18.3158 50.9684 18.8211 51.2211C19.1368 51.3474 22.5474 51.9158 23.1789 52.0421C23.4316 52.1053 24.8842 52.4211 25.1368 52.4211C25.3263 51.6632 21.4737 46.8 18.7579 44.6527C19.2 44.8421 19.6421 45.0316 20.0842 45.2211C20.4 45.4737 21.6632 46.6737 22.5474 47.6211C22.6105 47.6842 22.9263 46.7369 22.4842 43.0737C23.1789 45.7263 22.9895 48.0632 23.0526 48.1895C24.4421 49.8316 25.5158 51.4737 26.1474 52.3579C26.1474 52.4211 26.2105 52.4211 26.2105 52.4842C27.0947 52.6737 31.9579 53.5579 33.5368 53.6211C34.3579 53.6842 35.1789 53.7474 35.9368 53.8105C36.5053 53.8737 37.0105 53.8737 37.5789 53.9369C37.9579 54 38.3368 54 38.7789 54C39.1579 54 39.5368 54 39.8526 53.8737C39.8526 53.8737 37.2 49.2 37.0737 49.1369C36.1263 48.1895 34.4842 47.9369 32.9684 47.9369C32.1474 47.9369 31.0105 47.9369 30.5053 47.8737C30.2526 47.7474 28.1053 47.5579 27.8526 47.179C28.8632 47.3053 30.1895 47.4948 31.9579 47.5579C34.6737 47.6842 35.1789 47.6211 36 47.6842C34.8632 45.6632 33.5368 43.7684 32.0211 42C31.3263 41.179 30.8211 40.2948 30.1263 39.4737C29.4316 38.7158 27.2842 35.2421 26.1474 34.9895C24.6947 34.6105 21.2211 33.4105 20.3368 33.1579C19.7053 32.6526 19.3263 32.4632 18.5684 32.1474L18.2526 31.8316C19.5158 32.5263 23.3684 33.979 25.7053 34.1684C25.1368 33.1579 22.6737 30.4421 22.2316 30.0632C21.6632 29.5579 20.8421 28.4211 20.8421 28.4211C20.8421 28.4211 20.2737 27.8526 19.8947 27.4105C19.5789 27.0948 18.9474 26.7158 18.6316 26.4632C18.1263 26.0842 16.9263 24.8211 16.6737 24.6316C16.4842 24.5053 14.5895 23.7474 13.8316 23.6211C13.7053 23.5579 12.4421 22.8632 12.3158 22.7369C12.6316 22.8 13.4526 23.179 13.9579 23.3684C14.4632 23.5579 15.1579 23.6842 16.1684 23.8737C16.0421 23.6842 13.9579 21.4105 13.8316 21.2842C13.6421 21.0948 11.6842 19.2 10.2947 17.9369C10.8 18.2526 11.3053 18.5684 11.8105 18.9474C12.2526 19.2632 14.0842 21.0316 14.3368 21.2211C14.8421 21.6 17.6842 25.0105 18.0632 25.3263C18.3789 25.6421 20.1474 27.0948 20.5895 27.2211C20.0211 25.7053 19.0737 24.1263 18.1895 22.5474C18.5053 22.9263 18.8842 23.3684 19.2632 23.7474C20.0842 25.2 21.1579 27.0948 21.1579 27.0948C21.2211 27.9158 22.9895 30 22.9895 30C22.9895 30 26.2737 33.5369 27.0316 34.6737C27.4105 35.179 27.9158 35.6211 28.2947 36.0632C29.5579 37.5158 30.5684 39.0316 32.0211 40.2316C32.0211 40.1053 32.0211 40.0421 32.0211 39.9158C32.0211 39.6632 32.0211 39.4105 32.0211 39.1579C32.0211 38.7158 30.9474 32.5895 30.8842 31.8948C30.8211 31.6421 30.7579 31.2 30.6316 30.7579C30.9474 31.5158 31.2 32.3369 31.4526 33.1579C31.5158 33.6 32.6526 39.4737 32.7158 40.0421C32.7789 40.8 32.9053 41.6211 33.4737 42.2526C33.8526 42.6316 35.9368 45.6632 36.3789 46.2316C36.821 46.8632 37.3263 47.4948 37.7684 48.1895C37.9579 48.4421 38.0842 48.7579 38.2737 48.9474C38.4 49.0737 38.9053 49.9579 39.0947 50.2737C39.2842 50.5895 39.4737 50.9053 39.6632 51.2211C39.8526 51.5369 40.0421 51.7895 40.2316 52.1053C40.2947 52.1684 40.7368 52.6737 40.7368 52.7369C41.0526 51.979 41.1789 46.4842 41.2421 46.1684C41.2421 45.979 41.3684 44.6526 41.3684 44.0842C41.4316 43.5158 41.3684 42.8842 41.3684 42.3158C41.3684 42.0632 41.9368 32.9684 41.9368 31.0737C41.6211 30.3158 41.1158 29.8105 40.4211 29.3053C39.3474 28.4211 38.0842 27.7895 37.1368 26.7158C37.2 26.779 33.9789 23.7474 33.6 22.4211C33.6632 22.4211 33.7263 22.4211 33.7895 22.5474C34.2947 23.7474 36.1895 25.2 36.8842 25.7684C37.0105 25.8948 36.5684 21.9158 35.5579 20.0842C36.9474 21.7263 37.2 26.0842 37.3263 26.2105C37.8316 26.7158 38.3368 27.2211 38.9684 27.6C39.2211 27.7895 39.7263 28.1684 39.7263 28.1684C39.7263 28.1684 41.1789 29.2421 41.9368 29.5579C41.9368 29.5579 41.9368 28.7369 41.9368 28.5474C41.9368 27.2842 41.9368 22.6737 41.9368 20.3369C41.8737 18.4421 41.9368 16.2316 41.8737 14.4C41.8105 12.9474 41.7474 9.4737 41.6842 9.34738C41.6211 9.22107 41.2421 8.71581 40.8 8.08423C40.6737 7.89475 40.2947 6.94738 40.2947 6.75791C40.8632 7.70528 41.4316 8.65265 41.6842 8.77896C41.6842 8.14738 41.4316 5.55789 41.4316 3.72631C41.6211 3.97894 41.8737 7.38949 42 8.2737C42.0632 9.0316 42.3789 15.0948 42.3789 16.2316C42.8842 14.6526 43.9579 13.3895 44.3368 11.7474C44.4 11.8105 44.3368 12.1263 44.3368 12.1895C44.2105 12.9474 43.9579 13.3263 43.7684 14.0842C43.3263 15.0316 42.8211 15.9158 42.6316 16.9263C42.5684 17.3684 42.5684 18.9474 42.5684 19.3263C42.5684 19.8948 42.5684 19.6421 42.5684 20.2105C42.6316 21.7895 42.5684 21.4105 42.6316 22.9895C42.6316 23.4948 42.6947 24 42.6947 24.5053C42.7579 25.2632 42.6947 25.9579 42.6947 26.7158C42.6947 27.3474 42.6947 27.979 42.7579 28.6105C42.7579 29.4948 42.6947 30.379 42.7579 31.2632C42.821 32.2737 42.6316 36.8211 42.6316 37.8316C42.6316 37.9579 42.8842 37.7053 44.7158 35.6842C45.9789 34.2316 47.2421 32.5263 48.0632 31.2C48.5684 30.4421 48.6947 30.0632 48.8842 29.7474C49.0105 29.5579 49.3263 29.2421 49.3263 29.3053C49.3263 29.4948 48.0632 31.6421 46.7368 33.6632C46.6105 33.8526 48.4421 33.3474 49.5789 32.4632C49.1368 33.2842 46.4211 34.1053 46.3579 34.2316C46.2316 34.4211 46.1053 34.6105 45.9158 34.8C44.1474 37.2632 42.6316 39.0316 42.6316 39.0316C42.4421 41.2421 41.8105 51.1579 42.1895 52.8632C42.5684 53.4948 44.021 51.2211 44.2737 50.9053C44.7158 50.3369 45.1579 49.8316 45.6632 49.3263C46.0421 48.9474 46.5474 48.7579 46.8632 48.379C47.2421 48 47.4316 47.5579 47.7474 47.179C48 46.8 48.3789 46.3579 48.5684 45.979C48.5684 45.9158 48.6316 45.8526 48.6316 45.8526C48.7579 45.7263 48.8842 45.6 49.0737 45.4737C50.2737 44.5263 50.9684 43.579 51.5368 42.3158C51.4737 40.4842 51.0947 38.7158 51.3474 36.8842C51.4105 36.5053 51.4737 36.1263 51.5368 35.8105C51.7263 35.0526 51.8526 34.2948 52.1053 33.5369C52.2316 33.2842 52.3579 32.9684 52.4842 32.7158C52.2316 34.2316 51.8526 35.6842 51.7263 37.2632C51.6 38.779 51.8526 40.2948 51.9158 41.8105C52.0421 41.8105 52.1053 41.7474 52.2316 41.6842C53.1158 41.1158 54.0632 39.979 54.0632 39.9158C54.2526 39.7263 54.4421 39.5369 54.6316 39.2842C54.821 39.0948 54.9474 38.8421 55.1368 38.6526C55.2632 38.5263 55.3263 38.4632 55.3895 38.3369C55.5158 38.1474 55.7053 38.0211 55.8316 37.8316C55.9579 37.7053 56.021 37.5158 56.2105 37.3895C56.5263 37.1369 56.7789 36.8211 57.0947 36.5684C57.2211 36.4421 57.3474 36.3158 57.4737 36.1895C58.3579 35.4948 58.6737 34.7369 59.1158 34.1684C59.5579 33.6 59.8105 33.0316 59.9368 32.4632V30.0632C59.9368 29.8737 59.9368 29.6211 59.9368 29.3684C59.9368 28.8 59.9368 28.2316 60 27.6632C60.1263 26.5263 60.4421 25.0105 60.9474 24C60.9474 24.1263 60.9474 24.2526 60.9474 24.4421C60.9474 24.9474 60.4421 26.0211 60.3158 27.7263C60.1895 29.4316 60.4421 31.7053 60.5684 32.0842C60.7579 32.0211 61.2632 31.4526 61.9579 30.5684C62.4 30.0632 62.7789 29.6211 63.2211 29.1158C63.4105 28.8632 63.5368 28.6737 63.7263 28.4211C64.2316 27.9158 64.4842 27.2842 64.9895 26.779C65.5579 26.2105 66.1895 25.4526 66.7579 24.8842C67.3263 24.3158 68.7158 22.3579 68.9684 21.979C68.9684 21.7895 69.1579 20.9053 69.2842 19.9579C69.4105 19.7684 69.6632 18.8842 69.7263 18.7579C69.6632 18.9474 69.6632 19.1369 69.6 19.3895C69.5368 19.7684 69.4105 20.2737 69.4105 20.5263C69.3474 21.0948 69.3474 21.2842 69.3474 21.4105C69.6632 20.9684 73.0737 16.3579 72.8842 16.7369C72.5684 17.4316 72.821 16.9895 71.4947 19.0105C70.1684 21.0948 67.3263 24.8842 66.9474 25.4527C66.3789 25.8948 65.8737 26.4632 65.4947 27.0316C65.3053 27.3474 65.1158 27.4737 64.9263 27.7895C64.8 28.1053 64.2947 28.4211 64.2316 28.8632C64.4842 28.8 64.9263 28.6737 65.1789 28.5474C65.3684 28.4211 66.5053 27.979 66.8211 27.7895C67.2 27.6 67.5789 27.3474 67.9579 27.1579C68.7789 26.7158 69.6 26.2737 70.3579 25.7684C70.4211 25.7053 70.5474 25.6421 70.6737 25.579C69.1579 27.0948 67.2 28.2316 65.2421 29.0526C64.9895 29.2421 64.6737 29.4316 64.4211 29.5579C64.1684 29.7474 63.9158 29.8105 63.6632 30.0632C63.5368 30.1895 63.3474 30.3158 63.1579 30.4421C62.5263 31.0105 61.9579 31.579 61.4526 32.2737C60.9474 32.9053 60.4421 33.6632 59.9368 34.2948C59.8737 34.3579 59.7474 34.7369 59.5579 35.0526C59.1789 35.5579 56.9053 37.8948 56.8421 37.9579C58.0421 37.8948 59.6842 37.7684 60.8842 37.579C61.6421 37.579 62.3368 37.4526 63.0316 37.3263C63.6632 37.2 64.7368 37.0105 65.1789 36.8211C63.9158 37.5158 62.7789 37.8316 61.3263 38.0211C56.7158 38.5895 56.4632 38.9053 56.3368 38.9684C54.821 39.4737 51.9789 43.7684 50.9684 44.8421C49.7684 46.1684 48.4421 47.0527 48.0632 48.5053C50.2105 48.8211 51.8526 48.6948 53.3053 48.1895C54.8211 47.6842 55.4526 47.3684 55.4526 47.3684C55.4526 47.3684 56.7789 46.7369 56.8421 46.8C55.7053 47.8737 55.3895 47.6842 54.0632 48.3158C53.1158 48.7579 51.7263 48.9474 50.7158 49.2H47.8737C47.6842 49.2632 46.9895 49.5158 46.6105 49.7053C46.2947 50.0211 45.9789 50.4632 45.7895 50.9053C44.8421 51.8526 44.1474 52.6737 43.2632 53.8105C44.0842 54 47.6842 53.6211 47.7474 53.6211C47.8105 53.6211 50.7789 53.4948 52.1684 53.2421C53.6842 53.179 55.2 52.9263 56.2737 51.9158C56.5895 51.6 57.6 50.4632 58.4211 49.3895C58.4211 49.3895 58.4211 49.3263 58.4842 49.3263C58.6105 49.2 58.7368 49.0105 58.8632 48.8842C58.9263 48.8211 58.9895 48.6948 59.0526 48.6316C59.1789 48.4421 59.3053 48.3158 59.4316 48.1263V48.0632C59.6842 47.3684 59.9368 46.6737 60.2526 45.979C60.5684 45.4737 60.8842 45.0316 61.2632 44.5895C61.3263 44.6526 61.0737 45.0948 61.0105 45.2211C60.5053 46.0421 60.1895 46.6105 60.0632 47.4316C61.3263 46.1053 62.7789 45.0948 64.5474 44.5895C64.1053 44.9053 62.5895 45.6632 61.9579 46.1053C61.3263 46.6105 60 47.8737 58.7368 49.5158C58.6737 49.579 57.0947 51.4737 56.6526 52.4211C57.4737 52.3579 58.6105 52.2316 59.4316 52.0421C60.5684 51.7895 61.7053 51.4737 62.8421 51.1579C63.4105 50.9684 64.0421 50.8421 64.6105 50.7158C65.2421 50.5263 65.8105 50.4 66.4421 50.2105C66.7579 50.1474 70.5474 49.1369 71.3053 48.8842C72 48.6948 72.6947 48.5053 73.2632 48.0632C73.3895 47.9369 73.5158 47.8105 73.6421 47.6842C73.7053 47.6211 73.7684 47.5579 73.7684 47.4948C73.8316 47.4316 73.8947 47.3053 73.8947 47.2421C73.8947 47.3053 75.0947 45.6 75.9158 45.4105C75.221 45.979 74.6526 46.7369 74.0842 47.4316C73.9579 47.5579 73.8316 47.7474 73.8947 47.9369C73.8947 48.0632 74.021 48.1895 74.1474 48.1263C75.5368 47.5579 76.9895 47.4316 78.4421 46.9263H78.5053C78.6947 46.8632 78.8842 46.8 79.0105 46.7369C77.8737 47.4316 76.5474 47.6842 75.2842 48.0632C74.2105 48.379 73.1368 48.8211 72.0632 49.0737C71.6842 49.1369 69.7263 49.7053 69.4105 49.8316C69.0947 49.9579 66.8211 50.779 65.7474 51.0316C66.2526 51.0948 66.7579 51.2211 67.2632 51.2842C68.4 51.4105 69.5368 51.5369 70.6737 51.5369C70.9895 51.4737 71.7474 51.4105 71.8105 51.4737C71.3053 51.7895 68.8421 51.9158 67.3263 51.6632C66.0632 51.5369 64.8632 51.5369 63.6 51.7263C63.4737 51.7895 58.4211 52.9895 58.3579 52.9895C57.4737 53.0527 56.5895 53.2421 55.7053 53.4316C54.6947 53.6211 53.6211 53.8105 52.6105 54C52.1053 54.0632 51.6 54.0632 51.0947 54.1263C50.2737 54.1895 49.3895 54.3158 48.5684 54.379C47.6842 54.4421 46.8 54.5053 45.9158 54.7579C45.6632 54.8211 45.4105 54.8842 45.2211 54.9474C45.2842 54.9474 45.7263 55.2632 45.8526 55.2632C46.0421 55.3895 46.2947 55.4526 46.5474 55.579C46.9895 55.7684 47.4947 55.9579 47.9368 56.1474C48.8842 56.5263 49.8316 56.779 50.7158 57.2211C51.8526 57.7263 52.8632 58.3579 53.9368 58.9263C55.5789 59.7474 56.9684 58.8632 58.6105 58.8C59.2421 58.7369 59.9368 58.5474 61.0737 58.9263C60.8842 58.9263 60.0632 58.9263 59.9368 58.9263C59.8105 58.9263 59.621 58.9263 59.4316 58.9895C59.1158 58.9895 58.8 59.0526 58.4842 59.1158C58.1053 59.179 57.7263 59.3053 57.3474 59.4316C57.0316 59.5579 56.4 59.6211 56.0842 59.8737C56.5263 60.3158 57.2842 60.5684 57.7263 60.8211C58.2947 61.0737 58.9263 61.3263 59.4947 61.6421C59.8105 61.8316 61.3263 62.6526 61.7684 62.9053C62.9053 63.7263 64.1684 64.2948 65.2421 65.179C65.3684 65.3053 65.4947 65.4316 65.6842 65.5579C65.8105 65.6842 65.9368 65.8737 66.0632 65.9369C65.4947 65.6211 61.8947 63.4105 61.8316 63.4105C61.5158 63.1579 61.0737 62.9684 60.6947 62.7158C60.821 63.3474 61.0737 63.9158 61.2632 64.1053C61.4526 64.3579 61.9579 65.0527 62.1474 65.3684C61.7684 65.3053 60.3158 63.4105 60 62.4C59.8105 61.9579 56.2737 60.7579 55.8316 60.5684C55.0737 60.1263 54.1895 59.8737 53.4316 59.4316C52.6105 58.9263 51.7895 58.4842 50.8421 58.1684C50.4 57.979 49.3895 57.6 49.0105 57.4105C49.3263 58.2948 49.6421 59.1158 50.4632 60.1263C51.4737 61.4527 51.6 61.6421 52.6737 62.5895C50.6526 61.7684 48.8842 58.8 48.1263 57.0948C48.0632 57.0316 47.7474 56.9684 47.6211 56.9053C47.4316 56.8421 47.3053 56.779 47.1158 56.7158C46.8 56.5895 45.4105 56.0842 45.0316 55.9579C44.4 55.7053 43.5158 55.3895 43.2 55.3895C42.8842 55.3895 42.5053 55.3895 42.1895 55.5158C41.7474 58.3579 44.0842 59.8737 46.1684 62.0211C46.4211 62.2737 46.8 62.8421 46.9895 63.0316C47.3053 63.2842 47.3053 63.0316 47.6211 63.0316C48.4421 63.0948 52.1053 66.379 54.0632 66.9474C54.1263 66.5053 54.1895 66.1263 54.7579 66.2526C56.021 67.1369 59.5579 68.5263 59.9368 68.4632C60.3158 68.3369 60.6947 67.8316 60.8842 67.8316C61.8947 68.0211 61.9579 68.4632 63.8526 68.5895C64.7368 68.6526 66.3789 69.0316 67.5789 68.9684C67.9579 68.5895 67.8316 68.2737 68.4 68.1474C69.1579 68.0211 70.0421 68.0842 70.4842 67.7684C70.5474 67.7684 70.5474 67.7053 70.6105 67.6421C69.6632 66.8842 69.0316 65.2421 68.1474 64.3579C67.9579 63.7895 68.7158 63.4737 68.5895 63.4105C66.9474 62.9053 66 60.9474 64.3579 60.3158C63.4737 60 64.6737 59.8737 64.4842 59.3684C64.3579 59.0527 62.6526 58.8 63.0947 58.0421C64.4842 57.9158 65.6842 57.6632 64.4842 56.6527C65.3053 56.3369 67.3263 56.5263 69.1579 56.0842C69.5368 56.0211 68.7158 55.5158 69.0316 55.4527C70.2947 55.0737 72.1263 54.8842 72.8842 54.3158C73.2632 54 73.0737 53.4316 72.8842 53.1158C75.1579 52.0421 75.7895 52.3579 77.621 50.9053C77.4316 50.9053 77.2421 49.8948 77.621 49.5158C78.0632 49.1369 78.3158 49.4527 79.9579 47.8737C81.6 46.2948 81.9789 45.7895 82.1053 46.0421C80.9053 44.8421 76.7368 44.4632 74.9684 44.0211ZM50.5263 45.4105C49.3263 46.6737 51.6 44.2105 50.5263 45.4105V45.4105ZM40.5474 59.6211C40.2316 59.8105 39.9789 60.2527 39.5368 60.5684C39.4105 64.8 38.5895 67.9579 37.8316 71.5579C37.8316 71.5579 39.6 71.8737 39.9158 71.5579C40.1684 71.2421 40.6105 64.7369 40.6105 64.7369C40.6105 64.7369 40.6737 61.579 41.2421 60.2527C41.2421 60.1263 40.7368 59.7474 40.5474 59.6211Z" fill="#FFDC40"/>
<path d="M115.553 14.4641C114.48 16.2957 112.648 17.8747 111.195 17.8747C110.059 17.8747 109.617 17.1168 109.617 16.1063C109.111 16.1694 108.732 16.1063 108.543 15.7905C108.795 15.9799 109.174 15.9799 109.617 15.9168C109.743 13.9589 111.511 11.4326 113.153 12.4431C114.353 13.201 112.395 15.0326 110.627 15.7905C110.438 16.6747 110.501 17.4957 111.195 17.4957C112.459 17.4957 114.101 16.1694 115.174 14.2747C117.448 10.4852 116.943 7.51678 113.974 7.51678C106.332 7.39047 94.2692 19.1378 93.0692 29.8115C92.5639 34.1694 93.9534 39.3484 99.385 39.3484C106.838 39.3484 111.006 31.7063 111.006 28.422C111.006 25.201 109.995 24.001 108.985 24.001C108.353 24.001 107.911 24.6957 107.722 25.7063C108.164 26.022 108.543 26.401 108.859 26.9063C109.68 28.2326 110.122 31.5168 108.922 31.5168C107.532 31.5168 106.901 29.0536 107.09 26.8431C105.953 26.3378 104.501 26.0852 103.617 25.8326C98.4376 24.001 99.006 20.4642 100.017 19.4536C100.774 18.6957 102.669 18.6957 102.732 20.401C102.48 19.201 101.153 19.0747 100.585 19.6431C100.143 20.0852 99.006 22.3589 103.806 24.001C104.627 24.3168 106.143 24.6326 107.406 25.3905C107.722 24.2536 108.353 23.3694 109.364 23.3694C110.88 23.3694 112.395 25.2642 112.395 28.422C112.395 33.0326 107.09 39.7273 99.4481 39.7273C93.2586 39.7273 90.3534 34.9273 91.0481 28.9905C92.1849 19.0115 103.49 6.82205 114.101 6.94836C117.764 7.01152 117.574 11.0536 115.553 14.4641ZM107.532 26.9694C107.406 28.9273 107.848 31.0747 108.669 31.0747C109.427 31.0747 109.238 28.9273 108.417 27.6642C108.164 27.4115 107.911 27.222 107.532 26.9694ZM110.69 15.4115C111.953 14.7168 113.09 13.4536 112.648 13.1378C112.017 12.7589 111.132 14.1484 110.69 15.4115Z" fill="#433C71"/>
<path d="M124.522 33.1588C124.585 33.222 124.585 33.3483 124.522 33.4115C123.196 34.6746 121.112 36.1904 119.343 36.1273C118.775 36.1273 118.333 36.0009 117.891 35.8746C117.006 36.3167 116.059 36.6325 115.112 36.6325C111.701 36.6957 111.954 31.5799 116.059 26.4009C116.628 26.2115 117.07 26.3378 117.385 26.5904C118.649 24.822 120.417 23.5588 122.564 23.5588C125.28 23.622 125.406 25.8957 124.206 28.4852C123.006 31.1378 120.859 34.1062 118.333 35.622C118.649 35.6852 118.964 35.7483 119.343 35.7483C121.112 35.7483 123.07 34.2957 124.27 33.1588C124.333 33.0957 124.459 33.0957 124.522 33.1588ZM116.88 35.3062C115.68 34.2325 115.364 32.2115 115.806 30.1904C114.228 33.0325 113.091 36.2536 114.733 36.2536C115.491 36.2536 116.185 35.8746 116.88 35.3062ZM117.701 26.9062C117.764 26.9694 117.764 27.0957 117.764 27.1588C117.512 27.4746 117.259 27.8536 116.943 28.2325C115.806 30.6957 115.617 33.6641 117.133 34.9904C117.701 34.4852 118.206 33.9167 118.775 33.2852C122.438 29.1799 124.27 24.0641 121.743 24.0641C120.228 24.1273 118.775 25.3273 117.701 26.9062Z" fill="#433C71"/>
<path d="M128.879 26.2747C126.353 31.0747 124.395 36.1274 126.037 36.0642C127.49 36.001 129.637 34.359 130.964 33.0327C131.027 32.9695 131.153 32.9695 131.216 33.0327C131.279 33.0958 131.279 33.2221 131.216 33.2853C129.574 34.9274 127.427 36.5064 126.037 36.5064C124.774 36.5064 123.953 35.7484 123.953 34.1063C123.953 31.5168 125.974 27.2221 128.437 23.18C131.09 18.8222 135.006 13.3274 137.216 12.2537C137.785 12.0642 138.922 13.0116 138.732 13.8958C138.037 16.1695 132.858 22.1695 128.879 26.2747ZM130.522 23.3063C130.269 23.7484 130.016 24.1905 129.7 24.6326C132.985 21.0958 136.837 16.6747 137.848 14.3379C138.164 13.6432 138.227 13.2643 137.848 13.4537C136.143 14.8432 132.353 20.2747 130.522 23.3063Z" fill="#433C71"/>
<path d="M154.711 13.9589C154.585 14.0852 154.459 14.2747 154.332 14.401C151.364 18.3168 146.311 26.6536 145.617 27.8536C144.101 30.3799 142.775 32.9694 142.332 34.4852C142.206 34.9905 142.143 35.2431 142.143 35.2431C141.638 37.4536 142.332 39.4747 144.985 39.4747C146.88 39.4747 148.08 38.5905 149.154 37.1378C150.164 35.8115 150.101 33.8536 149.343 33.7273C148.711 33.6642 148.332 34.4221 148.396 35.1168C147.827 32.9063 150.859 32.5273 150.669 34.8642C150.48 37.8326 147.827 39.8536 144.606 39.8536C141.701 39.8536 140.375 38.2115 140.185 36.0642C140.122 35.4326 140.248 34.9273 140.311 34.4852C140.438 33.7273 140.817 32.7799 141.322 31.7063C138.796 34.4221 135.827 36.6957 134.185 36.1273C132.101 35.4326 132.227 33.1589 133.554 30.6957C132.48 31.7694 131.532 32.7799 130.964 33.4115C130.901 33.4747 130.775 33.4747 130.711 33.4115C130.648 33.3484 130.648 33.2221 130.711 33.1589C131.596 32.2115 133.175 30.4431 134.88 28.801C137.027 26.0221 140.438 23.5589 143.469 23.3694C144.606 23.3063 145.364 23.7484 145.617 24.2536C147.575 21.0326 150.922 15.7905 152.943 13.3273C153.385 12.9484 155.09 13.5168 154.711 13.9589ZM142.269 30.0642C142.838 29.0536 143.469 27.9799 144.101 26.9063C144.29 26.5905 144.796 25.8326 145.427 24.6957C145.301 24.1905 144.48 23.8115 143.532 23.9378C139.68 24.3799 133.301 33.8536 135.006 34.9905C136.459 36.0642 139.743 33.0326 142.269 30.0642Z" fill="#433C71"/>
<path d="M181.049 22.9905C178.649 26.9063 175.933 30.822 173.028 33.9168C175.87 35.3694 179.028 37.5168 182.185 37.5168C183.828 37.5168 185.596 36.5063 185.596 35.4957C185.596 34.7378 184.964 34.5484 184.08 35.1799C184.838 34.0431 186.67 34.0431 186.985 35.4957C187.238 37.0115 185.785 38.7168 183.575 38.7168C180.228 38.7168 176.185 35.9378 172.838 34.2326C169.112 38.0852 164.943 40.4852 160.206 39.7273C157.996 39.3484 156.038 38.2115 156.796 34.8642C157.428 31.9589 160.775 29.8115 163.175 29.8115C165.196 29.8115 166.649 31.2642 166.838 32.8431C167.47 32.7168 168.164 32.5905 168.922 32.5905C169.743 32.5905 170.564 32.8431 171.449 33.222C173.975 30.2536 176.375 26.5905 178.649 22.9273C175.428 22.422 172.333 20.5905 171.07 17.622C169.617 14.2747 170.817 10.0431 173.406 8.08521C176.817 5.55889 179.406 8.401 174.922 11.1799C176.817 9.53784 175.743 7.01152 173.659 8.46415C171.006 10.422 170.185 14.3378 171.638 17.4957C172.838 20.2115 176.185 22.0431 179.028 22.3589C183.954 14.5273 188.564 6.94836 193.175 6.94836C195.259 6.94836 196.08 7.95889 196.08 9.53784C196.206 15.7905 187.68 22.6115 181.049 22.9905ZM171.196 33.4115C170.312 33.0326 169.491 32.7799 168.733 32.7799C167.912 32.7799 167.28 32.9063 166.838 33.0957C166.838 33.0957 166.838 33.0957 166.838 33.1589C166.838 34.5484 165.701 36.0642 164.691 36.0642C164.249 36.0642 163.996 35.622 163.996 35.1799C163.996 34.1063 165.006 33.222 166.459 32.8431C166.333 31.6431 165.259 30.6957 163.491 30.6957C161.47 30.6957 159.196 32.6536 158.312 34.6115C157.175 37.1378 157.933 38.9063 160.206 39.2852C164.122 39.9168 167.785 37.3273 171.196 33.4115ZM165.259 34.7378C164.88 36.1905 166.396 34.801 166.522 33.222C165.701 33.6642 165.385 34.2326 165.259 34.7378ZM181.554 22.1694C187.996 21.2852 192.228 15.7905 193.68 13.3273C195.322 10.4852 195.006 7.201 193.238 7.201C190.017 7.201 186.228 14.4642 181.554 22.1694Z" fill="#433C71"/>
<path d="M192.669 30.0642C191.09 33.2221 190.459 36.38 192.985 36.2537C193.996 36.1905 195.89 35.5589 197.469 33.9168C197.975 33.4115 198.227 33.1589 198.417 32.9694C198.48 32.9063 198.606 32.8431 198.669 32.9694C198.732 33.0326 198.732 33.1589 198.669 33.2221C198.417 33.5379 197.911 34.0431 197.722 34.2326C195.954 35.8747 193.996 36.6326 192.922 36.6326C190.711 36.6326 189.322 35.4958 189.575 33.5379C189.701 32.8431 189.827 32.2115 190.08 31.5168C189.511 32.2115 188.88 32.9063 188.248 33.4747C188.185 33.5379 188.059 33.5379 187.996 33.4747C187.932 33.4115 187.932 33.2852 187.996 33.2221C188.817 32.4642 189.701 31.3905 190.648 30.1273C192.543 26.1484 196.396 22.7379 198.543 23.4958C199.364 23.7484 199.364 24.5063 198.922 25.4536C197.848 27.5379 195.322 29.3063 192.669 30.0642ZM192.922 29.6221C195.385 28.801 197.596 27.2221 198.417 25.4536C198.796 24.6958 198.732 24.1273 198.101 24.1273C196.775 24.001 194.501 26.7168 192.922 29.6221Z" fill="#433C71"/>
<path d="M213.006 33.0958C213.069 33.1589 213.069 33.2853 213.006 33.3484C211.111 35.3695 208.143 37.2642 206.564 36.3168C205.048 35.3695 205.68 33.6642 207.069 31.2642C204.733 33.9168 201.89 36.3168 200.059 36.3168C198.922 36.3168 197.975 35.3695 197.975 34.1695C197.975 30.6326 204.227 24.2537 208.775 23.3695C210.354 23.0537 210.48 24.2537 210.038 24.8221C208.269 27.0326 203.154 29.9379 201.006 31.9589C200.059 33.601 199.68 34.9274 200.248 35.3695C202.017 36.6326 206.627 31.58 209.154 28.0432C209.596 27.3484 210.038 26.6537 210.543 25.9589C210.606 25.8958 210.606 25.8326 210.669 25.7695L210.796 25.58C211.048 25.1379 212.627 26.2116 212.311 26.7168C209.343 31.5168 206.248 35.9379 208.08 35.9379C209.217 35.9379 211.175 34.6747 212.754 33.0958C212.817 33.0326 212.88 33.0326 213.006 33.0958ZM201.701 30.8853C204.101 28.9274 207.954 26.5905 209.722 24.7589C210.164 24.0642 209.975 23.6221 208.775 23.8747C207.006 24.1905 203.722 27.7905 201.701 30.8853Z" fill="#433C71"/>
<path d="M216.353 33.3485L216.29 33.4116C216.985 33.8537 217.427 34.6747 217.553 34.9905C217.742 35.3695 217.806 35.8116 217.869 36.3168C219.574 36.3168 220.837 34.8642 219.006 34.4853C222.1 33.9168 221.279 37.3906 217.932 36.8222C217.932 37.7064 217.806 38.7168 217.553 39.7274C216.606 43.1379 214.206 46.6748 211.869 46.6116C209.342 46.6116 211.237 39.7274 214.142 33.0327C214.458 32.338 214.711 31.6432 215.027 31.0116C214.269 31.8958 213.448 32.7801 212.879 33.3485C212.69 33.538 212.564 33.3485 212.564 33.3485C212.5 33.2853 212.5 33.1589 212.564 33.0958C213.321 32.401 214.521 31.0116 215.658 29.6221C216.858 27.0958 218.121 24.8222 219.132 23.18C221.911 18.8222 225.827 13.3274 228.1 12.2537C228.669 12.0642 229.806 13.0116 229.553 13.8958C228.985 16.1063 223.742 22.0432 219.637 26.2116C218.437 28.4221 217.364 30.6958 216.669 32.4642C216.606 32.78 216.479 33.0958 216.353 33.3485ZM217.553 36.8222C217.3 36.759 217.048 36.6958 216.795 36.5695C216.164 36.3168 215.721 36.001 215.342 35.6221C212.69 42.1274 211.679 46.4221 212.816 46.1063C215.09 45.5379 217.616 40.2327 217.553 36.8222ZM216.164 33.7905C215.974 34.2958 215.721 34.8011 215.532 35.2432C215.974 35.7485 216.606 36.1905 217.364 36.3168C217.427 36.3168 217.49 36.3168 217.49 36.3168C217.427 35.9379 217.364 35.5589 217.237 35.18C217.237 35.0537 216.732 34.2326 216.164 33.7905ZM221.406 23.3063C221.153 23.7484 220.837 24.1905 220.585 24.6326C223.932 21.0958 227.848 16.6748 228.921 14.4011C229.237 13.7064 229.3 13.3274 228.985 13.5168C227.153 14.8432 223.3 20.2747 221.406 23.3063Z" fill="#433C71"/>
<path d="M96.6663 60.7261C94.1766 60.7261 92.2326 58.964 92.2326 56.5425C92.2326 54.1438 94.0402 52.3021 96.5981 52.3021C99.0764 52.3021 101.009 54.0642 101.009 56.4971C101.009 58.8844 99.2355 60.7261 96.6663 60.7261ZM96.7572 60.26C98.4284 60.26 99.5084 58.7935 99.5084 56.7813C99.5084 54.7691 98.4625 52.7682 96.5071 52.7682C94.8246 52.7682 93.7332 54.2688 93.7332 56.2356C93.7332 58.2705 94.8019 60.26 96.7572 60.26ZM109.301 52.4954C109.676 52.4954 110.04 52.4726 110.608 52.4272V52.4954C110.04 52.6318 109.733 52.8592 109.699 53.4958C109.654 54.3825 109.642 55.1556 109.642 56.3152C109.642 57.7135 109.642 59.2937 109.654 60.7261H109.631C107.687 58.8048 105.697 56.9177 103.64 55.076V56.4288C103.64 57.6907 103.662 58.5434 103.708 59.5211C103.742 60.1804 104.049 60.4078 104.617 60.5442V60.6124C104.038 60.567 103.617 60.5442 103.253 60.5442C102.878 60.5442 102.537 60.567 101.968 60.6124V60.5442C102.537 60.4078 102.844 60.1804 102.878 59.5438C102.923 58.5547 102.935 57.7021 102.935 56.4402C102.935 55.1328 102.935 53.6095 102.923 52.3021H102.946C104.947 54.2688 106.948 56.1446 108.937 57.9522V56.2242C108.937 55.0987 108.915 54.3712 108.869 53.5072C108.835 52.8592 108.528 52.6318 107.96 52.4954V52.4272C108.539 52.4726 108.926 52.4954 109.301 52.4954ZM117.073 58.7253L117.141 58.7366C117.073 59.3619 117.073 59.9758 117.141 60.6238C116.175 60.5556 115.265 60.5442 114.515 60.5442C113.81 60.5442 112.401 60.5556 111.627 60.6124V60.5442C112.275 60.4078 112.548 60.1918 112.582 59.5324C112.639 58.4752 112.639 57.8044 112.639 56.5198C112.639 55.3375 112.639 54.5076 112.571 53.4844C112.537 52.9046 112.275 52.6318 111.616 52.4954V52.4272C112.196 52.4613 112.821 52.4954 113.333 52.4954C113.856 52.4954 114.481 52.4613 115.049 52.4272V52.4954C114.379 52.6318 114.14 52.9046 114.106 53.4731C114.038 54.6326 114.026 55.2011 114.026 56.5198C114.026 57.7931 114.038 58.6798 114.072 59.18C114.117 59.9985 114.811 60.0554 115.47 60.0554C116.436 60.0554 116.846 59.7825 117.073 58.7253ZM121.888 52.4272V52.4954C121.217 52.6432 120.979 52.916 120.945 53.4958C120.876 54.644 120.865 55.2011 120.865 56.5198C120.865 57.8385 120.876 58.3956 120.945 59.5438C120.979 60.1236 121.24 60.4078 121.888 60.5442V60.6124C121.32 60.5783 120.695 60.5442 120.172 60.5442C119.66 60.5442 119.035 60.5783 118.455 60.6124V60.5442C119.114 60.4078 119.376 60.1236 119.41 59.5438C119.478 58.5206 119.478 57.7021 119.478 56.5198C119.478 55.3375 119.478 54.519 119.41 53.4958C119.376 52.916 119.114 52.6318 118.455 52.4954V52.4272C119.035 52.4613 119.66 52.4954 120.172 52.4954C120.695 52.4954 121.32 52.4613 121.888 52.4272ZM130.151 52.4954C130.526 52.4954 130.89 52.4726 131.458 52.4272V52.4954C130.89 52.6318 130.583 52.8592 130.549 53.4958C130.503 54.3825 130.492 55.1556 130.492 56.3152C130.492 57.7135 130.492 59.2937 130.503 60.7261H130.48C128.536 58.8048 126.547 56.9177 124.489 55.076V56.4288C124.489 57.6907 124.512 58.5434 124.557 59.5211C124.591 60.1804 124.898 60.4078 125.467 60.5442V60.6124C124.887 60.567 124.466 60.5442 124.103 60.5442C123.727 60.5442 123.386 60.567 122.818 60.6124V60.5442C123.386 60.4078 123.693 60.1804 123.727 59.5438C123.773 58.5547 123.784 57.7021 123.784 56.4402C123.784 55.1328 123.784 53.6095 123.773 52.3021H123.796C125.797 54.2688 127.797 56.1446 129.787 57.9522V56.2242C129.787 55.0987 129.764 54.3712 129.719 53.5072C129.685 52.8592 129.378 52.6318 128.809 52.4954V52.4272C129.389 52.4726 129.775 52.4954 130.151 52.4954ZM137.911 58.7139L137.979 58.7253C137.911 59.3505 137.911 59.9644 137.979 60.6124C137.013 60.5442 136.104 60.5442 135.353 60.5442C134.648 60.5442 133.25 60.5556 132.477 60.6124V60.5442C133.125 60.4078 133.398 60.1918 133.432 59.5324C133.489 58.4752 133.489 57.8044 133.489 56.5198C133.489 55.383 133.489 54.5531 133.421 53.5299C133.386 52.9501 133.125 52.6204 132.466 52.4954V52.4272C133.261 52.4613 134.273 52.4954 135.353 52.4954C136.354 52.4954 137.286 52.4613 137.934 52.4158C137.877 52.8478 137.866 53.5754 137.934 54.1552H137.866C137.684 53.1888 137.184 52.8819 136.126 52.8819C135.831 52.8819 135.467 52.8933 134.944 52.9387C134.887 54.4962 134.876 55.2011 134.876 56.1446C135.16 56.156 135.512 56.1446 136.058 56.1219C136.911 56.0878 137.036 55.7808 137.149 55.2579L137.218 55.2693C137.184 55.6331 137.149 56.0082 137.149 56.3379C137.149 56.679 137.172 57.0541 137.218 57.4065L137.149 57.4179C137.002 56.8154 136.922 56.5994 136.058 56.5653C135.66 56.5425 135.262 56.5312 134.876 56.5312C134.876 57.7931 134.887 58.6798 134.921 59.18C134.967 59.9985 135.66 60.0554 136.308 60.0554C137.274 60.0554 137.684 59.7712 137.911 58.7139ZM146.14 56.2697C147.539 56.4061 148.243 57.2246 148.243 58.2933C148.243 59.6688 147.073 60.6124 145.379 60.6124C144.867 60.6124 144.185 60.5442 143.673 60.5442C143.241 60.5442 142.286 60.5897 142.002 60.6124V60.5442C142.559 60.4305 142.923 60.2259 142.957 59.5665C143.003 58.6571 143.025 57.8499 143.025 56.5198C143.025 55.4625 143.014 54.5303 142.957 53.4958C142.923 52.8251 142.559 52.6091 142.002 52.4954V52.4272C142.423 52.4613 143.219 52.484 143.56 52.484C144.06 52.484 144.571 52.4272 145.163 52.4272C146.584 52.4272 147.766 52.9956 147.766 54.3257C147.766 55.2579 147.175 55.9968 146.14 56.2697ZM146.425 54.4621C146.425 53.5981 145.902 52.8137 144.901 52.8137C144.753 52.8137 144.617 52.8251 144.446 52.8705C144.401 54.3371 144.39 55.167 144.39 56.0992C144.594 56.1333 144.765 56.1446 144.913 56.1446C145.936 56.1446 146.425 55.3034 146.425 54.4621ZM145.447 60.2373C146.413 60.2373 146.902 59.4756 146.902 58.4979C146.902 57.236 146.118 56.5312 144.935 56.5312C144.776 56.5312 144.583 56.5425 144.39 56.5766C144.39 58.316 144.39 58.7253 144.412 59.2596C144.458 59.9872 144.935 60.2373 145.447 60.2373ZM152.863 52.4272V52.4954C152.192 52.6432 151.953 52.916 151.919 53.4958C151.851 54.644 151.84 55.2011 151.84 56.5198C151.84 57.8385 151.851 58.3956 151.919 59.5438C151.953 60.1236 152.215 60.4078 152.863 60.5442V60.6124C152.294 60.5783 151.669 60.5442 151.146 60.5442C150.634 60.5442 150.009 60.5783 149.429 60.6124V60.5442C150.089 60.4078 150.35 60.1236 150.384 59.5438C150.453 58.5206 150.453 57.7021 150.453 56.5198C150.453 55.3375 150.453 54.519 150.384 53.4958C150.35 52.916 150.089 52.6318 149.429 52.4954V52.4272C150.009 52.4613 150.634 52.4954 151.146 52.4954C151.669 52.4954 152.294 52.4613 152.863 52.4272ZM158.119 56.2697C159.518 56.4061 160.223 57.2246 160.223 58.2933C160.223 59.6688 159.052 60.6124 157.358 60.6124C156.846 60.6124 156.164 60.5442 155.652 60.5442C155.22 60.5442 154.265 60.5897 153.981 60.6124V60.5442C154.538 60.4305 154.902 60.2259 154.936 59.5665C154.982 58.6571 155.004 57.8499 155.004 56.5198C155.004 55.4625 154.993 54.5303 154.936 53.4958C154.902 52.8251 154.538 52.6091 153.981 52.4954V52.4272C154.402 52.4613 155.198 52.484 155.539 52.484C156.039 52.484 156.551 52.4272 157.142 52.4272C158.563 52.4272 159.745 52.9956 159.745 54.3257C159.745 55.2579 159.154 55.9968 158.119 56.2697ZM158.404 54.4621C158.404 53.5981 157.881 52.8137 156.88 52.8137C156.732 52.8137 156.596 52.8251 156.425 52.8705C156.38 54.3371 156.369 55.167 156.369 56.0992C156.573 56.1333 156.744 56.1446 156.892 56.1446C157.915 56.1446 158.404 55.3034 158.404 54.4621ZM157.426 60.2373C158.392 60.2373 158.881 59.4756 158.881 58.4979C158.881 57.236 158.097 56.5312 156.914 56.5312C156.755 56.5312 156.562 56.5425 156.369 56.5766C156.369 58.316 156.369 58.7253 156.391 59.2596C156.437 59.9872 156.914 60.2373 157.426 60.2373ZM166.865 58.7253L166.934 58.7366C166.865 59.3619 166.865 59.9758 166.934 60.6238C165.967 60.5556 165.058 60.5442 164.307 60.5442C163.603 60.5442 162.193 60.5556 161.42 60.6124V60.5442C162.068 60.4078 162.341 60.1918 162.375 59.5324C162.432 58.4752 162.432 57.8044 162.432 56.5198C162.432 55.3375 162.432 54.5076 162.363 53.4844C162.329 52.9046 162.068 52.6318 161.408 52.4954V52.4272C161.988 52.4613 162.614 52.4954 163.125 52.4954C163.648 52.4954 164.273 52.4613 164.842 52.4272V52.4954C164.171 52.6318 163.932 52.9046 163.898 53.4731C163.83 54.6326 163.819 55.2011 163.819 56.5198C163.819 57.7931 163.83 58.6798 163.864 59.18C163.91 59.9985 164.603 60.0554 165.262 60.0554C166.229 60.0554 166.638 59.7825 166.865 58.7253ZM173.693 58.7139L173.761 58.7253C173.693 59.3505 173.693 59.9644 173.761 60.6124C172.795 60.5442 171.885 60.5442 171.135 60.5442C170.43 60.5442 169.032 60.5556 168.259 60.6124V60.5442C168.907 60.4078 169.179 60.1918 169.214 59.5324C169.27 58.4752 169.27 57.8044 169.27 56.5198C169.27 55.383 169.27 54.5531 169.202 53.5299C169.168 52.9501 168.907 52.6204 168.247 52.4954V52.4272C169.043 52.4613 170.055 52.4954 171.135 52.4954C172.135 52.4954 173.067 52.4613 173.715 52.4158C173.659 52.8478 173.647 53.5754 173.715 54.1552H173.647C173.465 53.1888 172.965 52.8819 171.908 52.8819C171.612 52.8819 171.249 52.8933 170.726 52.9387C170.669 54.4962 170.657 55.2011 170.657 56.1446C170.942 56.156 171.294 56.1446 171.84 56.1219C172.692 56.0878 172.817 55.7808 172.931 55.2579L172.999 55.2693C172.965 55.6331 172.931 56.0082 172.931 56.3379C172.931 56.679 172.954 57.0541 172.999 57.4065L172.931 57.4179C172.783 56.8154 172.704 56.5994 171.84 56.5653C171.442 56.5425 171.044 56.5312 170.657 56.5312C170.657 57.7931 170.669 58.6798 170.703 59.18C170.748 59.9985 171.442 60.0554 172.09 60.0554C173.056 60.0554 173.465 59.7712 173.693 58.7139ZM180.103 60.7261C179.114 60.7261 178.455 60.3396 178.079 60.0554C178.125 59.5438 178.136 59.055 178.079 58.532H178.148C178.364 59.6461 179.148 60.2486 180.035 60.2486C180.808 60.2486 181.444 59.8166 181.444 58.9981C181.444 57.1678 178.216 56.5198 178.216 54.3598C178.216 52.9615 179.478 52.3135 180.762 52.3135C181.467 52.3135 181.967 52.5067 182.331 52.7341C182.286 53.1547 182.263 53.7459 182.331 54.1324H182.263C182.081 53.1775 181.513 52.791 180.819 52.791C180.001 52.791 179.58 53.2912 179.58 53.871C179.58 55.4739 182.82 56.156 182.82 58.4297C182.82 59.828 181.615 60.7261 180.103 60.7261ZM188.749 60.7261C185.998 60.7261 184.19 58.9413 184.19 56.5198C184.19 54.0415 186.1 52.3135 188.749 52.3135C189.749 52.3135 190.659 52.5522 191.284 52.791C191.193 53.3935 191.205 53.9505 191.284 54.5417H191.216C190.795 53.1888 189.909 52.8023 188.817 52.8023C186.748 52.8023 185.725 54.3257 185.725 56.2356C185.725 58.1568 186.589 60.2373 188.999 60.2373C190.011 60.2373 191.102 59.9076 191.432 58.3274H191.5C191.421 59.1118 191.443 59.7712 191.5 60.2486C190.898 60.4646 189.829 60.7261 188.749 60.7261ZM202.035 52.4272V52.4954C201.364 52.6432 201.126 52.916 201.092 53.4958C201.012 54.644 201.012 55.2011 201.012 56.5198C201.012 57.8385 201.012 58.3956 201.092 59.5438C201.126 60.1236 201.376 60.4078 202.035 60.5442V60.6124C201.467 60.5783 200.83 60.5442 200.319 60.5442C199.796 60.5442 199.17 60.5783 198.591 60.6124V60.5442C199.25 60.4078 199.511 60.1236 199.546 59.5438C199.614 58.5547 199.625 57.7476 199.625 56.6221C198.886 56.5766 198.147 56.5653 197.386 56.5653C196.669 56.5653 195.964 56.5766 195.248 56.6221C195.248 57.8726 195.26 58.4297 195.328 59.5438C195.362 60.1236 195.623 60.4078 196.271 60.5442V60.6124C195.703 60.5783 195.078 60.5442 194.555 60.5442C194.043 60.5442 193.418 60.5783 192.838 60.6124V60.5442C193.498 60.4078 193.759 60.1236 193.793 59.5438C193.861 58.5206 193.861 57.7021 193.861 56.5198C193.861 55.3375 193.861 54.519 193.793 53.4958C193.759 52.916 193.498 52.6318 192.838 52.4954V52.4272C193.418 52.4613 194.043 52.4954 194.555 52.4954C195.078 52.4954 195.703 52.4613 196.271 52.4272V52.4954C195.601 52.6432 195.362 52.916 195.328 53.4958C195.271 54.4848 195.248 55.0419 195.248 56.0196C195.987 56.0764 196.738 56.0878 197.556 56.0878C198.284 56.0878 198.954 56.0651 199.625 56.0196C199.625 55.0987 199.602 54.3712 199.546 53.4958C199.511 52.916 199.25 52.6318 198.591 52.4954V52.4272C199.17 52.4613 199.796 52.4954 200.319 52.4954C200.83 52.4954 201.467 52.4613 202.035 52.4272ZM207.386 60.7261C204.897 60.7261 202.953 58.964 202.953 56.5425C202.953 54.1438 204.76 52.3021 207.318 52.3021C209.796 52.3021 211.729 54.0642 211.729 56.4971C211.729 58.8844 209.956 60.7261 207.386 60.7261ZM207.477 60.26C209.148 60.26 210.228 58.7935 210.228 56.7813C210.228 54.7691 209.182 52.7682 207.227 52.7682C205.545 52.7682 204.453 54.2688 204.453 56.2356C204.453 58.2705 205.522 60.26 207.477 60.26ZM217.334 60.7261C214.844 60.7261 212.9 58.964 212.9 56.5425C212.9 54.1438 214.708 52.3021 217.265 52.3021C219.744 52.3021 221.676 54.0642 221.676 56.4971C221.676 58.8844 219.903 60.7261 217.334 60.7261ZM217.425 60.26C219.096 60.26 220.176 58.7935 220.176 56.7813C220.176 54.7691 219.13 52.7682 217.174 52.7682C215.492 52.7682 214.401 54.2688 214.401 56.2356C214.401 58.2705 215.469 60.26 217.425 60.26ZM228.059 58.7253L228.128 58.7366C228.059 59.3619 228.059 59.9758 228.128 60.6238C227.161 60.5556 226.252 60.5442 225.501 60.5442C224.797 60.5442 223.387 60.5556 222.614 60.6124V60.5442C223.262 60.4078 223.535 60.1918 223.569 59.5324C223.626 58.4752 223.626 57.8044 223.626 56.5198C223.626 55.3375 223.626 54.5076 223.557 53.4844C223.523 52.9046 223.262 52.6318 222.603 52.4954V52.4272C223.182 52.4613 223.808 52.4954 224.319 52.4954C224.842 52.4954 225.467 52.4613 226.036 52.4272V52.4954C225.365 52.6318 225.126 52.9046 225.092 53.4731C225.024 54.6326 225.013 55.2011 225.013 56.5198C225.013 57.7931 225.024 58.6798 225.058 59.18C225.104 59.9985 225.797 60.0554 226.456 60.0554C227.423 60.0554 227.832 59.7825 228.059 58.7253Z" fill="#433C71"/>
</g>
<defs>
<clipPath id="clip0_1316_4523">
<rect width="229.895" height="72" fill="white"/>
</clipPath>
</defs>
</svg>
