<svg width="230" height="72" viewBox="0 0 230 72" fill="none" xmlns="http://www.w3.org/2000/svg">
<g clip-path="url(#clip0_2581_205)">
<path fill-rule="evenodd" clip-rule="evenodd" d="M50.5263 45.4105C49.3263 46.6737 51.6 44.2105 50.5263 45.4105V45.4105ZM74.9684 44.0211C74.9684 43.0737 75.5368 43.6421 75.3474 42.8842L67.3895 42.6316C67.5789 42.379 67.7684 42.0632 67.7053 41.6211C66.3789 41.4316 66 42.2526 64.6105 41.9369C65.6211 40.6737 66.5053 39.2842 67.7053 38.1474C67.5789 37.7053 66.8211 37.8948 66.3158 37.8316C67.7053 35.179 70.0421 33.5369 71.1158 30.6316C71.0526 30.1895 70.6105 30.5053 70.1684 30.5053C69.7895 28.9895 71.4947 27.7263 72.1263 26.5263C72.8842 25.2 73.6421 23.8105 74.2105 22.4211C74.2105 22.4211 73.7053 22.1053 73.2 22.4211C72.7579 20.2737 74.4 17.179 74.5895 14.5263C73.9579 13.579 71.8105 14.8421 71.8105 14.8421C71.8105 14.8421 68.0842 16.6105 66.6947 17.3053C66.6947 16.8 66.7579 16.3579 66.3789 16.2948C66.1263 16.2316 63.8526 18 63.6 18.379C63.221 18.5053 60.9474 20.8421 59.8105 21.7895C59.0526 21.8526 58.7368 21.5369 58.8 20.779C58.0421 21.4737 55.5789 24.3158 55.0105 24.8842C54.5053 25.3895 53.1789 26.9053 52.6105 26.5895C52.6105 24.3158 51.7263 26.5895 50.9053 26.5895V23.4948C50.6526 22.4842 50.1474 23.8105 49.5158 23.4948C49.6421 20.4 49.4526 17.5579 49.2 14.9053C48.6316 14.9053 48.3158 15.1579 48.1895 15.6C46.9895 13.0105 46.9895 9.22107 45.7895 6.6316C45.2211 6.6316 44.9053 6.88423 44.7789 7.32633C43.3263 4.86316 42.1895 2.14737 40.4211 0C38.5263 2.02106 37.7684 4.73685 36.5053 7.32633C36.1895 7.0737 35.6211 7.20002 35.4316 6.82107C35.0526 7.38949 34.7368 9.22107 34.3579 10.2316C33.7895 12 33.2842 13.7053 33.3474 15.6C33.0947 15.2842 32.5263 15.3474 32.2105 15.1579C31.0737 17.7474 31.5789 20.779 31.6421 23.4948C30.8211 23.6211 30.8842 22.8632 29.9368 23.179V26.9053C28.9263 26.0211 28.2316 24.8211 27.8526 26.4632C27.0947 26.4 22.9263 21.4105 22.6737 20.7158C22.2947 20.779 22.3579 21.3474 22.3579 21.7263C21.4105 21.8526 21.2211 20.8421 20.6526 20.3369C19.8947 19.7053 14.7158 16.0421 14.7158 16.0421C14.7158 16.0421 14.5895 16.8 14.7789 17.179C14.4 18 8.21053 14.3369 7.2 14.1474C6.37895 16.8 8.21053 19.8316 8.58947 22.4211C7.95789 22.4842 7.95789 22.3579 7.26316 22.4211C7.95789 25.9579 10.2316 27.4737 11.3053 30.6316H9.91579C11.5579 33.0316 13.1368 35.4316 15.0947 37.5158C14.9684 37.9579 14.2105 37.7684 13.7053 37.8316C14.5263 39.2842 15.4105 40.6737 16.8 41.6211C16.4211 42.2526 12.6947 41.8105 12.1263 41.8105C11.8105 41.8105 12 42.379 12.1263 42.4421L8.4 42.7579C7.95789 42.8211 6.44211 42.7579 6.25262 43.2632C6.18947 43.5158 6.50526 43.7053 6.50526 43.7053C6.50526 43.7053 2.02105 44.9684 0 45.7895C1.38947 47.4948 3.09474 48.8842 5.17895 49.8948C5.36842 50.6526 4.54736 50.4 4.4842 50.9053C5.55789 51.3474 8.4 52.6737 9.6 53.3053C9.72632 53.5579 9.72632 53.8737 9.34737 54.1895C9.41053 54.1263 13.0737 55.579 13.0737 55.6421C13.3263 55.7053 13.2632 56.0842 13.3895 56.0842C14.4632 56.3369 16.7368 56.5263 17.8737 56.7158C17.8105 57.2211 17.3053 57.2842 17.1789 57.7263C17.8105 58.0421 18.8842 57.8526 19.2632 58.4211C18.5053 58.5474 17.1789 59.7474 17.3684 60.2527C17.5579 60.6948 17.0526 61.0737 16.8 61.2632C15.7263 61.9579 14.5895 62.2737 14.1474 63.5369C15.4105 63.4737 14.0211 64.7369 13.7053 64.9895C12.9474 65.7474 11.7474 66.8211 11.7474 68.0211C13.8947 68.3369 14.7158 68.1474 16.9263 68.0211V69.0316C18.7579 68.9053 20.4632 67.4527 22.2947 67.6421C22.4842 67.6421 23.4316 67.9579 23.4316 67.9579C25.2 67.8948 26.9053 65.179 28.2316 66.9474C28.8 66.2526 31.4526 64.8632 32.0211 64.5474C32.7158 64.1053 33.4105 63.7263 34.0421 63.5369C34.4211 63.4105 34.7368 63.9158 35.1158 63.6632C35.6842 63.2211 36.2526 61.7684 36.8211 61.1369C37.8316 60.1263 37.2 60.7579 36.8842 61.0737C37.5158 60.4421 38.2737 59.9369 38.9053 59.3053C39.2211 58.9895 39.6 58.6737 39.7895 58.2316C40.0421 57.8527 40.1053 57.3474 40.1053 56.9053C40.1053 56.6526 40.2947 55.8948 40.1053 55.7053C39.8526 55.4527 39.0947 55.5158 38.7789 55.579C38.4 55.7053 34.4211 57.0948 33.6632 57.2842C33.1579 57.4105 31.8316 57.7895 31.5158 58.1684C31.2632 58.4842 31.3895 59.6842 30.6947 61.8316C30.6316 62.0842 30.3789 62.2737 30.2526 62.5263C29.8737 63.1579 29.3684 63.6632 28.8 64.1053C29.1789 63.6 29.8737 62.7158 30.2526 61.9579C30.5684 61.2 30.9474 59.6842 30.8842 58.2948C29.3053 58.8632 27.9158 59.3684 26.6526 60.1263C24.9474 61.1369 23.1789 62.0211 21.4105 62.9684C20.9053 63.2211 20.4 63.5369 19.8316 63.7895C19.5789 64.7369 19.4526 65.1158 19.3263 65.6211C19.0105 66.0632 18.6947 66.8211 18.5053 66.9474C18.7579 66.5684 18.8842 66.1895 19.1368 65.4316C19.3263 64.8632 19.3263 64.2948 19.3263 64.2316C19.1368 64.2948 18.7579 64.4211 18.1895 64.6737C18.0632 64.7369 15.2211 65.9369 15.0947 66C14.8421 66.0632 14.5895 66.1263 14.3368 66.2526C16.4211 65.1158 19.5158 63.6632 20.5263 62.9684C21.5368 62.2737 23.6211 61.1369 24.3158 60.6948C24.6316 60.5053 25.9579 60 25.5158 59.8105C24.9474 59.6842 23.4947 59.7474 23.2421 59.7474C22.2316 59.7474 20.8421 59.7474 19.8947 60C19.8947 60 20.0211 59.8105 20.9684 59.6211C21.0947 59.6211 24.6947 59.2421 25.9579 59.3053C26.9053 59.3053 29.8737 57.8526 31.2632 57.3474C32.6526 56.8421 37.7053 55.1369 37.8316 54.8842C36.8842 54.7579 35.4316 54.5053 34.4842 54.4421C33.5368 54.379 30.2526 53.9369 29.6211 53.8105C29.3053 53.7474 28.9895 53.6842 28.6737 53.6842C28.2947 53.6842 27.9158 53.6211 27.5368 53.5579C26.5263 53.4316 25.5158 53.2421 24.5684 52.9895C24.4421 52.9895 24.3158 52.9263 24.2526 52.9263C21.9789 52.4211 20.4 52.1684 19.3263 51.8526C17.1158 51.2211 16.9263 51.0316 16.6105 50.9684C14.7789 51.3474 12.7579 51.6632 10.6105 51.0948C10.6737 51.0948 10.6737 51.0316 10.7368 51.0316C11.2421 51.0316 11.6842 51.0948 12.5053 51.2211C13.3263 51.2842 15.5368 50.9053 15.9158 50.7158C15.7263 50.6526 15.1579 50.4 14.9684 50.4C14.8421 50.4 9.66316 48.5684 7.95789 47.8737C7.89474 47.8737 6.56842 47.4316 6.18947 47.2421C5.68421 46.9263 5.17894 46.6105 4.67368 46.2316C5.30526 46.4842 7.07368 47.4948 7.89474 47.4316C7.89474 47.3053 7.70526 46.9895 7.70526 46.9895C7.51579 46.6737 7.2 46.1684 6.88421 45.7263C7.07368 45.8526 7.26316 46.1053 7.51579 46.2316C7.76842 46.6737 8.02105 47.0527 8.27368 47.5579C9.34737 47.9369 10.4842 48.3158 11.6211 48.7579C12.4421 49.1369 13.3895 49.3895 14.2737 49.7053C14.5895 49.8316 14.9053 49.8948 15.2211 50.0211C15.7895 50.3369 18.3158 50.9684 18.8211 51.2211C19.1368 51.3474 22.5474 51.9158 23.1789 52.0421C23.4316 52.1053 24.8842 52.4211 25.1368 52.4211C25.3263 51.6632 21.4737 46.8 18.7579 44.6527C19.2 44.8421 19.6421 45.0316 20.0842 45.2211C20.4 45.4737 21.6632 46.6737 22.5474 47.6211C22.6105 47.6842 22.9263 46.7369 22.4842 43.0737C23.1789 45.7263 22.9895 48.0632 23.0526 48.1895C24.4421 49.8316 25.5158 51.4737 26.1474 52.3579C26.1474 52.4211 26.2105 52.4211 26.2105 52.4842C27.0947 52.6737 31.9579 53.5579 33.5368 53.6211C34.3579 53.6842 35.1789 53.7474 35.9368 53.8105C36.5053 53.8737 37.0105 53.8737 37.5789 53.9369C37.9579 54 38.3368 54 38.7789 54C39.1579 54 39.5368 54 39.8526 53.8737C39.8526 53.8737 37.2 49.2 37.0737 49.1369C36.1263 48.1895 34.4842 47.9369 32.9684 47.9369C32.1474 47.9369 31.0105 47.9369 30.5053 47.8737C30.2526 47.7474 28.1053 47.5579 27.8526 47.179C28.8632 47.3053 30.1895 47.4948 31.9579 47.5579C34.6737 47.6842 35.1789 47.6211 36 47.6842C34.8632 45.6632 33.5368 43.7684 32.0211 42C31.3263 41.179 30.8211 40.2948 30.1263 39.4737C29.4316 38.7158 27.2842 35.2421 26.1474 34.9895C24.6947 34.6105 21.2211 33.4105 20.3368 33.1579C19.7053 32.6526 19.3263 32.4632 18.5684 32.1474L18.2526 31.8316C19.5158 32.5263 23.3684 33.979 25.7053 34.1684C25.1368 33.1579 22.6737 30.4421 22.2316 30.0632C21.6632 29.5579 20.8421 28.4211 20.8421 28.4211C20.8421 28.4211 20.2737 27.8526 19.8947 27.4105C19.5789 27.0948 18.9474 26.7158 18.6316 26.4632C18.1263 26.0842 16.9263 24.8211 16.6737 24.6316C16.4842 24.5053 14.5895 23.7474 13.8316 23.6211C13.7053 23.5579 12.4421 22.8632 12.3158 22.7369C12.6316 22.8 13.4526 23.179 13.9579 23.3684C14.4632 23.5579 15.1579 23.6842 16.1684 23.8737C16.0421 23.6842 13.9579 21.4105 13.8316 21.2842C13.6421 21.0948 11.6842 19.2 10.2947 17.9369C10.8 18.2526 11.3053 18.5684 11.8105 18.9474C12.2526 19.2632 14.0842 21.0316 14.3368 21.2211C14.8421 21.6 17.6842 25.0105 18.0632 25.3263C18.3789 25.6421 20.1474 27.0948 20.5895 27.2211C20.0211 25.7053 19.0737 24.1263 18.1895 22.5474C18.5053 22.9263 18.8842 23.3684 19.2632 23.7474C20.0842 25.2 21.1579 27.0948 21.1579 27.0948C21.2211 27.9158 22.9895 30 22.9895 30C22.9895 30 26.2737 33.5369 27.0316 34.6737C27.4105 35.179 27.9158 35.6211 28.2947 36.0632C29.5579 37.5158 30.5684 39.0316 32.0211 40.2316C32.0211 40.1053 32.0211 40.0421 32.0211 39.9158C32.0211 39.6632 32.0211 39.4105 32.0211 39.1579C32.0211 38.7158 30.9474 32.5895 30.8842 31.8948C30.8211 31.6421 30.7579 31.2 30.6316 30.7579C30.9474 31.5158 31.2 32.3369 31.4526 33.1579C31.5158 33.6 32.6526 39.4737 32.7158 40.0421C32.7789 40.8 32.9053 41.6211 33.4737 42.2526C33.8526 42.6316 35.9368 45.6632 36.3789 46.2316C36.821 46.8632 37.3263 47.4948 37.7684 48.1895C37.9579 48.4421 38.0842 48.7579 38.2737 48.9474C38.4 49.0737 38.9053 49.9579 39.0947 50.2737C39.2842 50.5895 39.4737 50.9053 39.6632 51.2211C39.8526 51.5369 40.0421 51.7895 40.2316 52.1053C40.2947 52.1684 40.7368 52.6737 40.7368 52.7369C41.0526 51.979 41.1789 46.4842 41.2421 46.1684C41.2421 45.979 41.3684 44.6526 41.3684 44.0842C41.4316 43.5158 41.3684 42.8842 41.3684 42.3158C41.3684 42.0632 41.9368 32.9684 41.9368 31.0737C41.6211 30.3158 41.1158 29.8105 40.4211 29.3053C39.3474 28.4211 38.0842 27.7895 37.1368 26.7158C37.2 26.779 33.9789 23.7474 33.6 22.4211C33.6632 22.4211 33.7263 22.4211 33.7895 22.5474C34.2947 23.7474 36.1895 25.2 36.8842 25.7684C37.0105 25.8948 36.5684 21.9158 35.5579 20.0842C36.9474 21.7263 37.2 26.0842 37.3263 26.2105C37.8316 26.7158 38.3368 27.2211 38.9684 27.6C39.2211 27.7895 39.7263 28.1684 39.7263 28.1684C39.7263 28.1684 41.1789 29.2421 41.9368 29.5579C41.9368 29.5579 41.9368 28.7369 41.9368 28.5474C41.9368 27.2842 41.9368 22.6737 41.9368 20.3369C41.8737 18.4421 41.9368 16.2316 41.8737 14.4C41.8105 12.9474 41.7474 9.4737 41.6842 9.34738C41.6211 9.22107 41.2421 8.71581 40.8 8.08423C40.6737 7.89475 40.2947 6.94738 40.2947 6.75791C40.8632 7.70528 41.4316 8.65265 41.6842 8.77896C41.6842 8.14738 41.4316 5.55789 41.4316 3.72631C41.6211 3.97894 41.8737 7.38949 42 8.2737C42.0632 9.0316 42.3789 15.0948 42.3789 16.2316C42.8842 14.6526 43.9579 13.3895 44.3368 11.7474C44.4 11.8105 44.3368 12.1263 44.3368 12.1895C44.2105 12.9474 43.9579 13.3263 43.7684 14.0842C43.3263 15.0316 42.8211 15.9158 42.6316 16.9263C42.5684 17.3684 42.5684 18.9474 42.5684 19.3263C42.5684 19.8948 42.5684 19.6421 42.5684 20.2105C42.6316 21.7895 42.5684 21.4105 42.6316 22.9895C42.6316 23.4948 42.6947 24 42.6947 24.5053C42.7579 25.2632 42.6947 25.9579 42.6947 26.7158C42.6947 27.3474 42.6947 27.979 42.7579 28.6105C42.7579 29.4948 42.6947 30.379 42.7579 31.2632C42.821 32.2737 42.6316 36.8211 42.6316 37.8316C42.6316 37.9579 42.8842 37.7053 44.7158 35.6842C45.9789 34.2316 47.2421 32.5263 48.0632 31.2C48.5684 30.4421 48.6947 30.0632 48.8842 29.7474C49.0105 29.5579 49.3263 29.2421 49.3263 29.3053C49.3263 29.4948 48.0632 31.6421 46.7368 33.6632C46.6105 33.8526 48.4421 33.3474 49.5789 32.4632C49.1368 33.2842 46.4211 34.1053 46.3579 34.2316C46.2316 34.4211 46.1053 34.6105 45.9158 34.8C44.1474 37.2632 42.6316 39.0316 42.6316 39.0316C42.4421 41.2421 41.8105 51.1579 42.1895 52.8632C42.5684 53.4948 44.021 51.2211 44.2737 50.9053C44.7158 50.3369 45.1579 49.8316 45.6632 49.3263C46.0421 48.9474 46.5474 48.7579 46.8632 48.379C47.2421 48 47.4316 47.5579 47.7474 47.179C48 46.8 48.3789 46.3579 48.5684 45.979C48.5684 45.9158 48.6316 45.8526 48.6316 45.8526C48.7579 45.7263 48.8842 45.6 49.0737 45.4737C50.2737 44.5263 50.9684 43.579 51.5368 42.3158C51.4737 40.4842 51.0947 38.7158 51.3474 36.8842C51.4105 36.5053 51.4737 36.1263 51.5368 35.8105C51.7263 35.0526 51.8526 34.2948 52.1053 33.5369C52.2316 33.2842 52.3579 32.9684 52.4842 32.7158C52.2316 34.2316 51.8526 35.6842 51.7263 37.2632C51.6 38.779 51.8526 40.2948 51.9158 41.8105C52.0421 41.8105 52.1053 41.7474 52.2316 41.6842C53.1158 41.1158 54.0632 39.979 54.0632 39.9158C54.2526 39.7263 54.4421 39.5369 54.6316 39.2842C54.821 39.0948 54.9474 38.8421 55.1368 38.6526C55.2632 38.5263 55.3263 38.4632 55.3895 38.3369C55.5158 38.1474 55.7053 38.0211 55.8316 37.8316C55.9579 37.7053 56.021 37.5158 56.2105 37.3895C56.5263 37.1369 56.7789 36.8211 57.0947 36.5684C57.2211 36.4421 57.3474 36.3158 57.4737 36.1895C58.3579 35.4948 58.6737 34.7369 59.1158 34.1684C59.5579 33.6 59.8105 33.0316 59.9368 32.4632V30.0632C59.9368 29.8737 59.9368 29.6211 59.9368 29.3684C59.9368 28.8 59.9368 28.2316 60 27.6632C60.1263 26.5263 60.4421 25.0105 60.9474 24C60.9474 24.1263 60.9474 24.2526 60.9474 24.4421C60.9474 24.9474 60.4421 26.0211 60.3158 27.7263C60.1895 29.4316 60.4421 31.7053 60.5684 32.0842C60.7579 32.0211 61.2632 31.4526 61.9579 30.5684C62.4 30.0632 62.7789 29.6211 63.2211 29.1158C63.4105 28.8632 63.5368 28.6737 63.7263 28.4211C64.2316 27.9158 64.4842 27.2842 64.9895 26.779C65.5579 26.2105 66.1895 25.4526 66.7579 24.8842C67.3263 24.3158 68.7158 22.3579 68.9684 21.979C68.9684 21.7895 69.1579 20.9053 69.2842 19.9579C69.4105 19.7684 69.6632 18.8842 69.7263 18.7579C69.6632 18.9474 69.6632 19.1369 69.6 19.3895C69.5368 19.7684 69.4105 20.2737 69.4105 20.5263C69.3474 21.0948 69.3474 21.2842 69.3474 21.4105C69.6632 20.9684 73.0737 16.3579 72.8842 16.7369C72.5684 17.4316 72.821 16.9895 71.4947 19.0105C70.1684 21.0948 67.3263 24.8842 66.9474 25.4527C66.3789 25.8948 65.8737 26.4632 65.4947 27.0316C65.3053 27.3474 65.1158 27.4737 64.9263 27.7895C64.8 28.1053 64.2947 28.4211 64.2316 28.8632C64.4842 28.8 64.9263 28.6737 65.1789 28.5474C65.3684 28.4211 66.5053 27.979 66.8211 27.7895C67.2 27.6 67.5789 27.3474 67.9579 27.1579C68.7789 26.7158 69.6 26.2737 70.3579 25.7684C70.4211 25.7053 70.5474 25.6421 70.6737 25.579C69.1579 27.0948 67.2 28.2316 65.2421 29.0526C64.9895 29.2421 64.6737 29.4316 64.4211 29.5579C64.1684 29.7474 63.9158 29.8105 63.6632 30.0632C63.5368 30.1895 63.3474 30.3158 63.1579 30.4421C62.5263 31.0105 61.9579 31.579 61.4526 32.2737C60.9474 32.9053 60.4421 33.6632 59.9368 34.2948C59.8737 34.3579 59.7474 34.7369 59.5579 35.0526C59.1789 35.5579 56.9053 37.8948 56.8421 37.9579C58.0421 37.8948 59.6842 37.7684 60.8842 37.579C61.6421 37.579 62.3368 37.4526 63.0316 37.3263C63.6632 37.2 64.7368 37.0105 65.1789 36.8211C63.9158 37.5158 62.7789 37.8316 61.3263 38.0211C56.7158 38.5895 56.4632 38.9053 56.3368 38.9684C54.821 39.4737 51.9789 43.7684 50.9684 44.8421C49.7684 46.1684 48.4421 47.0527 48.0632 48.5053C50.2105 48.8211 51.8526 48.6948 53.3053 48.1895C54.8211 47.6842 55.4526 47.3684 55.4526 47.3684C55.4526 47.3684 56.7789 46.7369 56.8421 46.8C55.7053 47.8737 55.3895 47.6842 54.0632 48.3158C53.1158 48.7579 51.7263 48.9474 50.7158 49.2H47.8737C47.6842 49.2632 46.9895 49.5158 46.6105 49.7053C46.2947 50.0211 45.9789 50.4632 45.7895 50.9053C44.8421 51.8526 44.1474 52.6737 43.2632 53.8105C44.0842 54 47.6842 53.6211 47.7474 53.6211C47.8105 53.6211 50.7789 53.4948 52.1684 53.2421C53.6842 53.179 55.2 52.9263 56.2737 51.9158C56.5895 51.6 57.6 50.4632 58.4211 49.3895C58.4211 49.3895 58.4211 49.3263 58.4842 49.3263C58.6105 49.2 58.7368 49.0105 58.8632 48.8842C58.9263 48.8211 58.9895 48.6948 59.0526 48.6316C59.1789 48.4421 59.3053 48.3158 59.4316 48.1263V48.0632C59.6842 47.3684 59.9368 46.6737 60.2526 45.979C60.5684 45.4737 60.8842 45.0316 61.2632 44.5895C61.3263 44.6526 61.0737 45.0948 61.0105 45.2211C60.5053 46.0421 60.1895 46.6105 60.0632 47.4316C61.3263 46.1053 62.7789 45.0948 64.5474 44.5895C64.1053 44.9053 62.5895 45.6632 61.9579 46.1053C61.3263 46.6105 60 47.8737 58.7368 49.5158C58.6737 49.579 57.0947 51.4737 56.6526 52.4211C57.4737 52.3579 58.6105 52.2316 59.4316 52.0421C60.5684 51.7895 61.7053 51.4737 62.8421 51.1579C63.4105 50.9684 64.0421 50.8421 64.6105 50.7158C65.2421 50.5263 65.8105 50.4 66.4421 50.2105C66.7579 50.1474 70.5474 49.1369 71.3053 48.8842C72 48.6948 72.6947 48.5053 73.2632 48.0632C73.3895 47.9369 73.5158 47.8105 73.6421 47.6842C73.7053 47.6211 73.7684 47.5579 73.7684 47.4948C73.8316 47.4316 73.8947 47.3053 73.8947 47.2421C73.8947 47.3053 75.0947 45.6 75.9158 45.4105C75.221 45.979 74.6526 46.7369 74.0842 47.4316C73.9579 47.5579 73.8316 47.7474 73.8947 47.9369C73.8947 48.0632 74.021 48.1895 74.1474 48.1263C75.5368 47.5579 76.9895 47.4316 78.4421 46.9263H78.5053C78.6947 46.8632 78.8842 46.8 79.0105 46.7369C77.8737 47.4316 76.5474 47.6842 75.2842 48.0632C74.2105 48.379 73.1368 48.8211 72.0632 49.0737C71.6842 49.1369 69.7263 49.7053 69.4105 49.8316C69.0947 49.9579 66.8211 50.779 65.7474 51.0316C66.2526 51.0948 66.7579 51.2211 67.2632 51.2842C68.4 51.4105 69.5368 51.5369 70.6737 51.5369C70.9895 51.4737 71.7474 51.4105 71.8105 51.4737C71.3053 51.7895 68.8421 51.9158 67.3263 51.6632C66.0632 51.5369 64.8632 51.5369 63.6 51.7263C63.4737 51.7895 58.4211 52.9895 58.3579 52.9895C57.4737 53.0527 56.5895 53.2421 55.7053 53.4316C54.6947 53.6211 53.6211 53.8105 52.6105 54C52.1053 54.0632 51.6 54.0632 51.0947 54.1263C50.2737 54.1895 49.3895 54.3158 48.5684 54.379C47.6842 54.4421 46.8 54.5053 45.9158 54.7579C45.6632 54.8211 45.4105 54.8842 45.2211 54.9474C45.2842 54.9474 45.7263 55.2632 45.8526 55.2632C46.0421 55.3895 46.2947 55.4526 46.5474 55.579C46.9895 55.7684 47.4947 55.9579 47.9368 56.1474C48.8842 56.5263 49.8316 56.779 50.7158 57.2211C51.8526 57.7263 52.8632 58.3579 53.9368 58.9263C55.5789 59.7474 56.9684 58.8632 58.6105 58.8C59.2421 58.7369 59.9368 58.5474 61.0737 58.9263C60.8842 58.9263 60.0632 58.9263 59.9368 58.9263C59.8105 58.9263 59.621 58.9263 59.4316 58.9895C59.1158 58.9895 58.8 59.0526 58.4842 59.1158C58.1053 59.179 57.7263 59.3053 57.3474 59.4316C57.0316 59.5579 56.4 59.6211 56.0842 59.8737C56.5263 60.3158 57.2842 60.5684 57.7263 60.8211C58.2947 61.0737 58.9263 61.3263 59.4947 61.6421C59.8105 61.8316 61.3263 62.6526 61.7684 62.9053C62.9053 63.7263 64.1684 64.2948 65.2421 65.179C65.3684 65.3053 65.4947 65.4316 65.6842 65.5579C65.8105 65.6842 65.9368 65.8737 66.0632 65.9369C65.4947 65.6211 61.8947 63.4105 61.8316 63.4105C61.5158 63.1579 61.0737 62.9684 60.6947 62.7158C60.821 63.3474 61.0737 63.9158 61.2632 64.1053C61.4526 64.3579 61.9579 65.0527 62.1474 65.3684C61.7684 65.3053 60.3158 63.4105 60 62.4C59.8105 61.9579 56.2737 60.7579 55.8316 60.5684C55.0737 60.1263 54.1895 59.8737 53.4316 59.4316C52.6105 58.9263 51.7895 58.4842 50.8421 58.1684C50.4 57.979 49.3895 57.6 49.0105 57.4105C49.3263 58.2948 49.6421 59.1158 50.4632 60.1263C51.4737 61.4527 51.6 61.6421 52.6737 62.5895C50.6526 61.7684 48.8842 58.8 48.1263 57.0948C48.0632 57.0316 47.7474 56.9684 47.6211 56.9053C47.4316 56.8421 47.3053 56.779 47.1158 56.7158C46.8 56.5895 45.4105 56.0842 45.0316 55.9579C44.4 55.7053 43.5158 55.3895 43.2 55.3895C42.8842 55.3895 42.5053 55.3895 42.1895 55.5158C41.7474 58.3579 44.0842 59.8737 46.1684 62.0211C46.4211 62.2737 46.8 62.8421 46.9895 63.0316C47.3053 63.2842 47.3053 63.0316 47.6211 63.0316C48.4421 63.0948 52.1053 66.379 54.0632 66.9474C54.1263 66.5053 54.1895 66.1263 54.7579 66.2526C56.021 67.1369 59.5579 68.5263 59.9368 68.4632C60.3158 68.3369 60.6947 67.8316 60.8842 67.8316C61.8947 68.0211 61.9579 68.4632 63.8526 68.5895C64.7368 68.6526 66.3789 69.0316 67.5789 68.9684C67.9579 68.5895 67.8316 68.2737 68.4 68.1474C69.1579 68.0211 70.0421 68.0842 70.4842 67.7684C70.5474 67.7684 70.5474 67.7053 70.6105 67.6421C69.6632 66.8842 69.0316 65.2421 68.1474 64.3579C67.9579 63.7895 68.7158 63.4737 68.5895 63.4105C66.9474 62.9053 66 60.9474 64.3579 60.3158C63.4737 60 64.6737 59.8737 64.4842 59.3684C64.3579 59.0527 62.6526 58.8 63.0947 58.0421C64.4842 57.9158 65.6842 57.6632 64.4842 56.6527C65.3053 56.3369 67.3263 56.5263 69.1579 56.0842C69.5368 56.0211 68.7158 55.5158 69.0316 55.4527C70.2947 55.0737 72.1263 54.8842 72.8842 54.3158C73.2632 54 73.0737 53.4316 72.8842 53.1158C75.1579 52.0421 75.7895 52.3579 77.621 50.9053C77.4316 50.9053 77.2421 49.8948 77.621 49.5158C78.0632 49.1369 78.3158 49.4527 79.9579 47.8737C81.6 46.2948 81.9789 45.7895 82.1053 46.0421C80.9053 44.8421 76.7368 44.4632 74.9684 44.0211ZM50.5263 45.4105C49.3263 46.6737 51.6 44.2105 50.5263 45.4105V45.4105ZM40.5474 59.6211C40.2316 59.8105 39.9789 60.2527 39.5368 60.5684C39.4105 64.8 38.5895 67.9579 37.8316 71.5579C37.8316 71.5579 39.6 71.8737 39.9158 71.5579C40.1684 71.2421 40.6105 64.7369 40.6105 64.7369C40.6105 64.7369 40.6737 61.579 41.2421 60.2527C41.2421 60.1263 40.7368 59.7474 40.5474 59.6211Z" fill="#FFDC40"/>
<path d="M115.553 14.464C114.48 16.2956 112.648 17.8746 111.195 17.8746C110.059 17.8746 109.617 17.1167 109.617 16.1061C109.111 16.1693 108.732 16.1061 108.543 15.7903C108.795 15.9798 109.174 15.9798 109.617 15.9167C109.743 13.9588 111.511 11.4324 113.153 12.443C114.353 13.2009 112.395 15.0325 110.627 15.7903C110.438 16.6746 110.501 17.4956 111.195 17.4956C112.459 17.4956 114.101 16.1693 115.174 14.2746C117.448 10.4851 116.943 7.51666 113.974 7.51666C106.332 7.39034 94.2692 19.1377 93.0692 29.8114C92.5639 34.1693 93.9534 39.3482 99.385 39.3482C106.838 39.3482 111.006 31.7061 111.006 28.4219C111.006 25.2009 109.995 24.0009 108.985 24.0009C108.353 24.0009 107.911 24.6956 107.722 25.7061C108.164 26.0219 108.543 26.4009 108.859 26.9061C109.68 28.2324 110.122 31.5167 108.922 31.5167C107.532 31.5167 106.901 29.0535 107.09 26.843C105.953 26.3377 104.501 26.0851 103.617 25.8324C98.4376 24.0009 99.006 20.464 100.017 19.4535C100.774 18.6956 102.669 18.6956 102.732 20.4009C102.48 19.2009 101.153 19.0746 100.585 19.643C100.143 20.0851 99.006 22.3588 103.806 24.0009C104.627 24.3167 106.143 24.6324 107.406 25.3903C107.722 24.2535 108.353 23.3693 109.364 23.3693C110.88 23.3693 112.395 25.264 112.395 28.4219C112.395 33.0325 107.09 39.7272 99.4481 39.7272C93.2586 39.7272 90.3534 34.9272 91.0481 28.9903C92.1849 19.0114 103.49 6.82192 114.101 6.94824C117.764 7.0114 117.574 11.0535 115.553 14.464ZM107.532 26.9693C107.406 28.9272 107.848 31.0746 108.669 31.0746C109.427 31.0746 109.238 28.9272 108.417 27.664C108.164 27.4114 107.911 27.2219 107.532 26.9693ZM110.69 15.4114C111.953 14.7167 113.09 13.4535 112.648 13.1377C112.017 12.7588 111.132 14.1482 110.69 15.4114Z" fill="white"/>
<path d="M124.522 33.1588C124.585 33.222 124.585 33.3483 124.522 33.4115C123.196 34.6746 121.112 36.1904 119.343 36.1273C118.775 36.1273 118.333 36.0009 117.891 35.8746C117.006 36.3167 116.059 36.6325 115.112 36.6325C111.701 36.6957 111.954 31.5799 116.059 26.4009C116.628 26.2115 117.07 26.3378 117.385 26.5904C118.649 24.822 120.417 23.5588 122.564 23.5588C125.28 23.622 125.406 25.8957 124.206 28.4852C123.006 31.1378 120.859 34.1062 118.333 35.622C118.649 35.6852 118.964 35.7483 119.343 35.7483C121.112 35.7483 123.07 34.2957 124.27 33.1588C124.333 33.0957 124.459 33.0957 124.522 33.1588ZM116.88 35.3062C115.68 34.2325 115.364 32.2115 115.806 30.1904C114.228 33.0325 113.091 36.2536 114.733 36.2536C115.491 36.2536 116.185 35.8746 116.88 35.3062ZM117.701 26.9062C117.764 26.9694 117.764 27.0957 117.764 27.1588C117.512 27.4746 117.259 27.8536 116.943 28.2325C115.806 30.6957 115.617 33.6641 117.133 34.9904C117.701 34.4852 118.206 33.9167 118.775 33.2852C122.438 29.1799 124.27 24.0641 121.743 24.0641C120.228 24.1273 118.775 25.3273 117.701 26.9062Z" fill="white"/>
<path d="M128.879 26.2745C126.353 31.0745 124.395 36.1271 126.037 36.064C127.49 36.0008 129.637 34.3588 130.964 33.0324C131.027 32.9693 131.153 32.9693 131.216 33.0324C131.279 33.0956 131.279 33.2219 131.216 33.285C129.574 34.9271 127.427 36.5061 126.037 36.5061C124.774 36.5061 123.953 35.7482 123.953 34.1061C123.953 31.5166 125.974 27.2219 128.437 23.1797C131.09 18.8219 135.006 13.3271 137.216 12.2534C137.785 12.064 138.922 13.0113 138.732 13.8955C138.037 16.1692 132.858 22.1692 128.879 26.2745ZM130.522 23.3061C130.269 23.7482 130.016 24.1903 129.7 24.6324C132.985 21.0955 136.837 16.6745 137.848 14.3376C138.164 13.643 138.227 13.264 137.848 13.4535C136.143 14.843 132.353 20.2745 130.522 23.3061Z" fill="white"/>
<path d="M154.711 13.9586C154.585 14.085 154.459 14.2744 154.332 14.4008C151.364 18.3165 146.311 26.6534 145.617 27.8534C144.101 30.3797 142.775 32.9692 142.332 34.485C142.206 34.9902 142.143 35.2429 142.143 35.2429C141.638 37.4534 142.332 39.4744 144.985 39.4744C146.88 39.4744 148.08 38.5902 149.154 37.1376C150.164 35.8113 150.101 33.8534 149.343 33.7271C148.711 33.6639 148.332 34.4218 148.396 35.1165C147.827 32.906 150.859 32.5271 150.669 34.8639C150.48 37.8323 147.827 39.8534 144.606 39.8534C141.701 39.8534 140.375 38.2113 140.185 36.0639C140.122 35.4323 140.248 34.9271 140.311 34.485C140.438 33.7271 140.817 32.7797 141.322 31.706C138.796 34.4218 135.827 36.6955 134.185 36.1271C132.101 35.4323 132.227 33.1587 133.554 30.6955C132.48 31.7692 131.532 32.7797 130.964 33.4113C130.901 33.4744 130.775 33.4744 130.711 33.4113C130.648 33.3481 130.648 33.2218 130.711 33.1587C131.596 32.2113 133.175 30.4429 134.88 28.8008C137.027 26.0218 140.438 23.5587 143.469 23.3692C144.606 23.306 145.364 23.7481 145.617 24.2534C147.575 21.0323 150.922 15.7902 152.943 13.3271C153.385 12.9481 155.09 13.5165 154.711 13.9586ZM142.269 30.0639C142.838 29.0534 143.469 27.9797 144.101 26.906C144.29 26.5902 144.796 25.8323 145.427 24.6955C145.301 24.1902 144.48 23.8113 143.532 23.9376C139.68 24.3797 133.301 33.8534 135.006 34.9902C136.459 36.0639 139.743 33.0323 142.269 30.0639Z" fill="white"/>
<path d="M181.049 22.9903C178.649 26.9061 175.933 30.8219 173.028 33.9167C175.87 35.3693 179.028 37.5167 182.185 37.5167C183.828 37.5167 185.596 36.5061 185.596 35.4956C185.596 34.7377 184.964 34.5482 184.08 35.1798C184.838 34.043 186.67 34.043 186.985 35.4956C187.238 37.0114 185.785 38.7167 183.575 38.7167C180.228 38.7167 176.185 35.9377 172.838 34.2325C169.112 38.0851 164.943 40.4851 160.206 39.7272C157.996 39.3482 156.038 38.2114 156.796 34.864C157.428 31.9588 160.775 29.8114 163.175 29.8114C165.196 29.8114 166.649 31.264 166.838 32.843C167.47 32.7167 168.164 32.5903 168.922 32.5903C169.743 32.5903 170.564 32.843 171.449 33.2219C173.975 30.2535 176.375 26.5903 178.649 22.9272C175.428 22.4219 172.333 20.5903 171.07 17.6219C169.617 14.2746 170.817 10.043 173.406 8.08508C176.817 5.55877 179.406 8.40087 174.922 11.1798C176.817 9.53772 175.743 7.0114 173.659 8.46403C171.006 10.4219 170.185 14.3377 171.638 17.4956C172.838 20.2114 176.185 22.043 179.028 22.3588C183.954 14.5272 188.564 6.94824 193.175 6.94824C195.259 6.94824 196.08 7.95877 196.08 9.53772C196.206 15.7903 187.68 22.6114 181.049 22.9903ZM171.196 33.4114C170.312 33.0325 169.491 32.7798 168.733 32.7798C167.912 32.7798 167.28 32.9061 166.838 33.0956C166.838 33.0956 166.838 33.0956 166.838 33.1588C166.838 34.5482 165.701 36.064 164.691 36.064C164.249 36.064 163.996 35.6219 163.996 35.1798C163.996 34.1061 165.006 33.2219 166.459 32.843C166.333 31.643 165.259 30.6956 163.491 30.6956C161.47 30.6956 159.196 32.6535 158.312 34.6114C157.175 37.1377 157.933 38.9061 160.206 39.2851C164.122 39.9167 167.785 37.3272 171.196 33.4114ZM165.259 34.7377C164.88 36.1903 166.396 34.8009 166.522 33.2219C165.701 33.664 165.385 34.2325 165.259 34.7377ZM181.554 22.1693C187.996 21.2851 192.228 15.7903 193.68 13.3272C195.322 10.4851 195.006 7.20087 193.238 7.20087C190.017 7.20087 186.228 14.464 181.554 22.1693Z" fill="white"/>
<path d="M192.669 30.0641C191.09 33.2219 190.459 36.3798 192.985 36.2535C193.996 36.1904 195.89 35.5588 197.469 33.9167C197.975 33.4114 198.227 33.1588 198.417 32.9693C198.48 32.9062 198.606 32.843 198.669 32.9693C198.732 33.0325 198.732 33.1588 198.669 33.2219C198.417 33.5377 197.911 34.043 197.722 34.2325C195.954 35.8746 193.996 36.6325 192.922 36.6325C190.711 36.6325 189.322 35.4956 189.575 33.5377C189.701 32.843 189.827 32.2114 190.08 31.5167C189.511 32.2114 188.88 32.9062 188.248 33.4746C188.185 33.5377 188.059 33.5377 187.996 33.4746C187.932 33.4114 187.932 33.2851 187.996 33.2219C188.817 32.4641 189.701 31.3904 190.648 30.1272C192.543 26.1483 196.396 22.7377 198.543 23.4956C199.364 23.7483 199.364 24.5062 198.922 25.4535C197.848 27.5377 195.322 29.3062 192.669 30.0641ZM192.922 29.6219C195.385 28.8009 197.596 27.2219 198.417 25.4535C198.796 24.6956 198.732 24.1272 198.101 24.1272C196.775 24.0009 194.501 26.7167 192.922 29.6219Z" fill="white"/>
<path d="M213.006 33.0955C213.069 33.1587 213.069 33.285 213.006 33.3482C211.111 35.3692 208.143 37.264 206.564 36.3166C205.048 35.3692 205.68 33.664 207.069 31.264C204.733 33.9166 201.89 36.3166 200.059 36.3166C198.922 36.3166 197.975 35.3692 197.975 34.1692C197.975 30.6324 204.227 24.2534 208.775 23.3692C210.354 23.0534 210.48 24.2534 210.038 24.8219C208.269 27.0324 203.154 29.9376 201.006 31.9587C200.059 33.6008 199.68 34.9271 200.248 35.3692C202.017 36.6324 206.627 31.5797 209.154 28.0429C209.596 27.3482 210.038 26.6534 210.543 25.9587C210.606 25.8955 210.606 25.8324 210.669 25.7692L210.796 25.5798C211.048 25.1376 212.627 26.2113 212.311 26.7166C209.343 31.5166 206.248 35.9376 208.08 35.9376C209.217 35.9376 211.175 34.6745 212.754 33.0955C212.817 33.0324 212.88 33.0324 213.006 33.0955ZM201.701 30.885C204.101 28.9271 207.954 26.5903 209.722 24.7587C210.164 24.064 209.975 23.6219 208.775 23.8745C207.006 24.1903 203.722 27.7903 201.701 30.885Z" fill="white"/>
<path d="M216.353 33.3482L216.29 33.4113C216.985 33.8534 217.427 34.6745 217.553 34.9903C217.742 35.3692 217.806 35.8113 217.869 36.3166C219.574 36.3166 220.837 34.864 219.006 34.485C222.1 33.9166 221.279 37.3903 217.932 36.8219C217.932 37.7061 217.806 38.7166 217.553 39.7271C216.606 43.1376 214.206 46.6746 211.869 46.6114C209.342 46.6114 211.237 39.7272 214.142 33.0324C214.458 32.3377 214.711 31.6429 215.027 31.0113C214.269 31.8955 213.448 32.7798 212.879 33.3482C212.69 33.5377 212.564 33.3482 212.564 33.3482C212.5 33.2851 212.5 33.1587 212.564 33.0955C213.321 32.4008 214.521 31.0113 215.658 29.6219C216.858 27.0955 218.121 24.8219 219.132 23.1797C221.911 18.8219 225.827 13.3271 228.1 12.2534C228.669 12.064 229.806 13.0113 229.553 13.8955C228.985 16.1061 223.742 22.0429 219.637 26.2113C218.437 28.4219 217.364 30.6955 216.669 32.464C216.606 32.7797 216.479 33.0956 216.353 33.3482ZM217.553 36.8219C217.3 36.7588 217.048 36.6955 216.795 36.5692C216.164 36.3166 215.721 36.0008 215.342 35.6219C212.69 42.1271 211.679 46.4219 212.816 46.1061C215.09 45.5376 217.616 40.2324 217.553 36.8219ZM216.164 33.7903C215.974 34.2955 215.721 34.8009 215.532 35.243C215.974 35.7482 216.606 36.1903 217.364 36.3166C217.427 36.3166 217.49 36.3166 217.49 36.3166C217.427 35.9376 217.364 35.5587 217.237 35.1797C217.237 35.0534 216.732 34.2324 216.164 33.7903ZM221.406 23.3061C221.153 23.7482 220.837 24.1903 220.585 24.6324C223.932 21.0955 227.848 16.6745 228.921 14.4009C229.237 13.7061 229.3 13.3271 228.985 13.5166C227.153 14.8429 223.3 20.2745 221.406 23.3061Z" fill="white"/>
<path d="M96.755 55.0363C94.2653 55.0363 92.3213 53.2742 92.3213 50.8527C92.3213 48.454 94.1289 46.6123 96.6868 46.6123C99.1651 46.6123 101.098 48.3744 101.098 50.8073C101.098 53.1946 99.3242 55.0363 96.755 55.0363ZM96.8459 54.5702C98.5171 54.5702 99.5971 53.1037 99.5971 51.0915C99.5971 49.0793 98.5512 47.0784 96.5958 47.0784C94.9133 47.0784 93.8219 48.579 93.8219 50.5458C93.8219 52.5807 94.8906 54.5702 96.8459 54.5702Z" fill="white"/>
<path d="M109.39 46.8056C109.765 46.8056 110.129 46.7828 110.697 46.7374V46.8056C110.129 46.942 109.822 47.1694 109.788 47.806C109.742 48.6927 109.731 49.4658 109.731 50.6254C109.731 52.0237 109.731 53.6039 109.742 55.0363H109.72C107.776 53.115 105.786 51.2279 103.728 49.3862V50.739C103.728 52.0009 103.751 52.8536 103.797 53.8313C103.831 54.4906 104.138 54.718 104.706 54.8544V54.9226C104.126 54.8771 103.706 54.8544 103.342 54.8544C102.967 54.8544 102.626 54.8771 102.057 54.9226V54.8544C102.626 54.718 102.933 54.4906 102.967 53.854C103.012 52.8649 103.024 52.0123 103.024 50.7504C103.024 49.443 103.024 47.9197 103.012 46.6123H103.035C105.036 48.579 107.037 50.4548 109.026 52.2624V50.5344C109.026 49.4089 109.003 48.6814 108.958 47.8174C108.924 47.1694 108.617 46.942 108.048 46.8056V46.7374C108.628 46.7828 109.015 46.8056 109.39 46.8056Z" fill="white"/>
<path d="M117.162 53.0355L117.23 53.0468C117.162 53.6721 117.162 54.286 117.23 54.934C116.264 54.8658 115.354 54.8544 114.604 54.8544C113.899 54.8544 112.489 54.8658 111.716 54.9226V54.8544C112.364 54.718 112.637 54.502 112.671 53.8426C112.728 52.7854 112.728 52.1146 112.728 50.83C112.728 49.6477 112.728 48.8178 112.66 47.7946C112.626 47.2148 112.364 46.942 111.705 46.8056V46.7374C112.285 46.7715 112.91 46.8056 113.421 46.8056C113.944 46.8056 114.57 46.7715 115.138 46.7374V46.8056C114.467 46.942 114.229 47.2148 114.194 47.7833C114.126 48.9428 114.115 49.5113 114.115 50.83C114.115 52.1033 114.126 52.99 114.16 53.4902C114.206 54.3087 114.899 54.3656 115.559 54.3656C116.525 54.3656 116.934 54.0927 117.162 53.0355Z" fill="white"/>
<path d="M121.977 46.7374V46.8056C121.306 46.9534 121.067 47.2262 121.033 47.806C120.965 48.9542 120.954 49.5113 120.954 50.83C120.954 52.1487 120.965 52.7058 121.033 53.854C121.067 54.4338 121.329 54.718 121.977 54.8544V54.9226C121.408 54.8885 120.783 54.8544 120.26 54.8544C119.749 54.8544 119.123 54.8885 118.544 54.9226V54.8544C119.203 54.718 119.464 54.4338 119.499 53.854C119.567 52.8308 119.567 52.0123 119.567 50.83C119.567 49.6477 119.567 48.8291 119.499 47.806C119.464 47.2262 119.203 46.942 118.544 46.8056V46.7374C119.123 46.7715 119.749 46.8056 120.26 46.8056C120.783 46.8056 121.408 46.7715 121.977 46.7374Z" fill="white"/>
<path d="M130.239 46.8056C130.614 46.8056 130.978 46.7828 131.547 46.7374V46.8056C130.978 46.942 130.671 47.1694 130.637 47.806C130.592 48.6927 130.58 49.4658 130.58 50.6254C130.58 52.0237 130.58 53.6039 130.592 55.0363H130.569C128.625 53.115 126.636 51.2279 124.578 49.3862V50.739C124.578 52.0009 124.601 52.8536 124.646 53.8313C124.68 54.4906 124.987 54.718 125.556 54.8544V54.9226C124.976 54.8771 124.555 54.8544 124.191 54.8544C123.816 54.8544 123.475 54.8771 122.907 54.9226V54.8544C123.475 54.718 123.782 54.4906 123.816 53.854C123.862 52.8649 123.873 52.0123 123.873 50.7504C123.873 49.443 123.873 47.9197 123.862 46.6123H123.884C125.885 48.579 127.886 50.4548 129.876 52.2624V50.5344C129.876 49.4089 129.853 48.6814 129.807 47.8174C129.773 47.1694 129.466 46.942 128.898 46.8056V46.7374C129.478 46.7828 129.864 46.8056 130.239 46.8056Z" fill="white"/>
<path d="M138 53.0241L138.068 53.0355C138 53.6607 138 54.2746 138.068 54.9226C137.102 54.8544 136.192 54.8544 135.442 54.8544C134.737 54.8544 133.339 54.8658 132.566 54.9226V54.8544C133.214 54.718 133.487 54.502 133.521 53.8426C133.577 52.7854 133.577 52.1146 133.577 50.83C133.577 49.6931 133.577 48.8633 133.509 47.8401C133.475 47.2603 133.214 46.9306 132.554 46.8056V46.7374C133.35 46.7715 134.362 46.8056 135.442 46.8056C136.442 46.8056 137.375 46.7715 138.023 46.726C137.966 47.158 137.954 47.8856 138.023 48.4654H137.954C137.772 47.499 137.272 47.1921 136.215 47.1921C135.919 47.1921 135.556 47.2035 135.033 47.2489C134.976 48.8064 134.964 49.5113 134.964 50.4548C135.249 50.4662 135.601 50.4548 136.147 50.4321C136.999 50.398 137.124 50.091 137.238 49.5681L137.306 49.5795C137.272 49.9433 137.238 50.3184 137.238 50.6481C137.238 50.9891 137.261 51.3643 137.306 51.7167L137.238 51.7281C137.09 51.1256 137.011 50.9096 136.147 50.8755C135.749 50.8527 135.351 50.8414 134.964 50.8414C134.964 52.1033 134.976 52.99 135.01 53.4902C135.055 54.3087 135.749 54.3656 136.397 54.3656C137.363 54.3656 137.772 54.0814 138 53.0241Z" fill="white"/>
<path d="M146.229 50.5799C147.627 50.7163 148.332 51.5348 148.332 52.6035C148.332 53.979 147.161 54.9226 145.467 54.9226C144.956 54.9226 144.274 54.8544 143.762 54.8544C143.33 54.8544 142.375 54.8999 142.091 54.9226V54.8544C142.648 54.7407 143.012 54.5361 143.046 53.8767C143.091 52.9673 143.114 52.1601 143.114 50.83C143.114 49.7727 143.103 48.8405 143.046 47.806C143.012 47.1353 142.648 46.9193 142.091 46.8056V46.7374C142.512 46.7715 143.307 46.7942 143.648 46.7942C144.149 46.7942 144.66 46.7374 145.251 46.7374C146.672 46.7374 147.855 47.3058 147.855 48.6359C147.855 49.5681 147.264 50.307 146.229 50.5799ZM146.513 48.7723C146.513 47.9083 145.99 47.1239 144.99 47.1239C144.842 47.1239 144.706 47.1353 144.535 47.1807C144.49 48.6473 144.478 49.4771 144.478 50.4094C144.683 50.4435 144.853 50.4548 145.001 50.4548C146.024 50.4548 146.513 49.6136 146.513 48.7723ZM145.536 54.5475C146.502 54.5475 146.991 53.7858 146.991 52.8081C146.991 51.5462 146.206 50.8414 145.024 50.8414C144.865 50.8414 144.672 50.8527 144.478 50.8868C144.478 52.6262 144.478 53.0355 144.501 53.5698C144.546 54.2974 145.024 54.5475 145.536 54.5475Z" fill="white"/>
<path d="M152.951 46.7374V46.8056C152.281 46.9534 152.042 47.2262 152.008 47.806C151.94 48.9542 151.928 49.5113 151.928 50.83C151.928 52.1487 151.94 52.7058 152.008 53.854C152.042 54.4338 152.303 54.718 152.951 54.8544V54.9226C152.383 54.8885 151.758 54.8544 151.235 54.8544C150.723 54.8544 150.098 54.8885 149.518 54.9226V54.8544C150.177 54.718 150.439 54.4338 150.473 53.854C150.541 52.8308 150.541 52.0123 150.541 50.83C150.541 49.6477 150.541 48.8291 150.473 47.806C150.439 47.2262 150.177 46.942 149.518 46.8056V46.7374C150.098 46.7715 150.723 46.8056 151.235 46.8056C151.758 46.8056 152.383 46.7715 152.951 46.7374Z" fill="white"/>
<path d="M158.208 50.5799C159.606 50.7163 160.311 51.5348 160.311 52.6035C160.311 53.979 159.14 54.9226 157.446 54.9226C156.935 54.9226 156.253 54.8544 155.741 54.8544C155.309 54.8544 154.354 54.8999 154.07 54.9226V54.8544C154.627 54.7407 154.991 54.5361 155.025 53.8767C155.07 52.9673 155.093 52.1601 155.093 50.83C155.093 49.7727 155.082 48.8405 155.025 47.806C154.991 47.1353 154.627 46.9193 154.07 46.8056V46.7374C154.491 46.7715 155.286 46.7942 155.627 46.7942C156.128 46.7942 156.639 46.7374 157.23 46.7374C158.651 46.7374 159.834 47.3058 159.834 48.6359C159.834 49.5681 159.243 50.307 158.208 50.5799ZM158.492 48.7723C158.492 47.9083 157.969 47.1239 156.969 47.1239C156.821 47.1239 156.685 47.1353 156.514 47.1807C156.469 48.6473 156.457 49.4771 156.457 50.4094C156.662 50.4435 156.832 50.4548 156.98 50.4548C158.003 50.4548 158.492 49.6136 158.492 48.7723ZM157.515 54.5475C158.481 54.5475 158.97 53.7858 158.97 52.8081C158.97 51.5462 158.185 50.8414 157.003 50.8414C156.844 50.8414 156.651 50.8527 156.457 50.8868C156.457 52.6262 156.457 53.0355 156.48 53.5698C156.526 54.2974 157.003 54.5475 157.515 54.5475Z" fill="white"/>
<path d="M166.954 53.0355L167.022 53.0468C166.954 53.6721 166.954 54.286 167.022 54.934C166.056 54.8658 165.146 54.8544 164.396 54.8544C163.691 54.8544 162.282 54.8658 161.509 54.9226V54.8544C162.157 54.718 162.429 54.502 162.463 53.8426C162.52 52.7854 162.52 52.1146 162.52 50.83C162.52 49.6477 162.52 48.8178 162.452 47.7946C162.418 47.2148 162.157 46.942 161.497 46.8056V46.7374C162.077 46.7715 162.702 46.8056 163.214 46.8056C163.737 46.8056 164.362 46.7715 164.93 46.7374V46.8056C164.26 46.942 164.021 47.2148 163.987 47.7833C163.919 48.9428 163.907 49.5113 163.907 50.83C163.907 52.1033 163.919 52.99 163.953 53.4902C163.998 54.3087 164.692 54.3656 165.351 54.3656C166.317 54.3656 166.727 54.0927 166.954 53.0355Z" fill="white"/>
<path d="M173.781 53.0241L173.85 53.0355C173.781 53.6607 173.781 54.2746 173.85 54.9226C172.883 54.8544 171.974 54.8544 171.224 54.8544C170.519 54.8544 169.12 54.8658 168.347 54.9226V54.8544C168.995 54.718 169.268 54.502 169.302 53.8426C169.359 52.7854 169.359 52.1146 169.359 50.83C169.359 49.6931 169.359 48.8633 169.291 47.8401C169.257 47.2603 168.995 46.9306 168.336 46.8056V46.7374C169.132 46.7715 170.144 46.8056 171.224 46.8056C172.224 46.8056 173.156 46.7715 173.804 46.726C173.747 47.158 173.736 47.8856 173.804 48.4654H173.736C173.554 47.499 173.054 47.1921 171.997 47.1921C171.701 47.1921 171.337 47.2035 170.814 47.2489C170.757 48.8064 170.746 49.5113 170.746 50.4548C171.03 50.4662 171.383 50.4548 171.928 50.4321C172.781 50.398 172.906 50.091 173.02 49.5681L173.088 49.5795C173.054 49.9433 173.02 50.3184 173.02 50.6481C173.02 50.9891 173.042 51.3643 173.088 51.7167L173.02 51.7281C172.872 51.1256 172.792 50.9096 171.928 50.8755C171.53 50.8527 171.133 50.8414 170.746 50.8414C170.746 52.1033 170.757 52.99 170.792 53.4902C170.837 54.3087 171.53 54.3656 172.178 54.3656C173.145 54.3656 173.554 54.0814 173.781 53.0241Z" fill="white"/>
<path d="M180.192 55.0363C179.203 55.0363 178.543 54.6498 178.168 54.3656C178.214 53.854 178.225 53.3651 178.168 52.8422H178.236C178.452 53.9563 179.237 54.5588 180.124 54.5588C180.897 54.5588 181.533 54.1268 181.533 53.3083C181.533 51.478 178.305 50.83 178.305 48.67C178.305 47.2717 179.566 46.6237 180.851 46.6237C181.556 46.6237 182.056 46.8169 182.42 47.0443C182.374 47.4649 182.352 48.0561 182.42 48.4426H182.352C182.17 47.4877 181.601 47.1011 180.908 47.1011C180.089 47.1011 179.669 47.6014 179.669 48.1811C179.669 49.7841 182.909 50.4662 182.909 52.7399C182.909 54.1382 181.704 55.0363 180.192 55.0363Z" fill="white"/>
<path d="M188.838 55.0363C186.087 55.0363 184.279 53.2515 184.279 50.83C184.279 48.3517 186.189 46.6237 188.838 46.6237C189.838 46.6237 190.748 46.8624 191.373 47.1011C191.282 47.7037 191.293 48.2607 191.373 48.8519H191.305C190.884 47.499 189.997 47.1125 188.906 47.1125C186.837 47.1125 185.814 48.6359 185.814 50.5458C185.814 52.467 186.678 54.5475 189.088 54.5475C190.1 54.5475 191.191 54.2178 191.521 52.6376H191.589C191.509 53.422 191.532 54.0814 191.589 54.5588C190.986 54.7748 189.918 55.0363 188.838 55.0363Z" fill="white"/>
<path d="M202.124 46.7374V46.8056C201.453 46.9534 201.214 47.2262 201.18 47.806C201.101 48.9542 201.101 49.5113 201.101 50.83C201.101 52.1487 201.101 52.7058 201.18 53.854C201.214 54.4338 201.465 54.718 202.124 54.8544V54.9226C201.555 54.8885 200.919 54.8544 200.407 54.8544C199.884 54.8544 199.259 54.8885 198.679 54.9226V54.8544C199.339 54.718 199.6 54.4338 199.634 53.854C199.702 52.8649 199.714 52.0578 199.714 50.9323C198.975 50.8868 198.236 50.8755 197.474 50.8755C196.758 50.8755 196.053 50.8868 195.337 50.9323C195.337 52.1828 195.348 52.7399 195.417 53.854C195.451 54.4338 195.712 54.718 196.36 54.8544V54.9226C195.792 54.8885 195.166 54.8544 194.643 54.8544C194.132 54.8544 193.507 54.8885 192.927 54.9226V54.8544C193.586 54.718 193.848 54.4338 193.882 53.854C193.95 52.8308 193.95 52.0123 193.95 50.83C193.95 49.6477 193.95 48.8291 193.882 47.806C193.848 47.2262 193.586 46.942 192.927 46.8056V46.7374C193.507 46.7715 194.132 46.8056 194.643 46.8056C195.166 46.8056 195.792 46.7715 196.36 46.7374V46.8056C195.689 46.9534 195.451 47.2262 195.417 47.806C195.36 48.795 195.337 49.3521 195.337 50.3298C196.076 50.3866 196.826 50.398 197.645 50.398C198.372 50.398 199.043 50.3753 199.714 50.3298C199.714 49.4089 199.691 48.6814 199.634 47.806C199.6 47.2262 199.339 46.942 198.679 46.8056V46.7374C199.259 46.7715 199.884 46.8056 200.407 46.8056C200.919 46.8056 201.555 46.7715 202.124 46.7374Z" fill="white"/>
<path d="M207.475 55.0363C204.985 55.0363 203.041 53.2742 203.041 50.8527C203.041 48.454 204.849 46.6123 207.407 46.6123C209.885 46.6123 211.818 48.3744 211.818 50.8073C211.818 53.1946 210.044 55.0363 207.475 55.0363ZM207.566 54.5702C209.237 54.5702 210.317 53.1037 210.317 51.0915C210.317 49.0793 209.271 47.0784 207.316 47.0784C205.633 47.0784 204.542 48.579 204.542 50.5458C204.542 52.5807 205.611 54.5702 207.566 54.5702Z" fill="white"/>
<path d="M217.422 55.0363C214.933 55.0363 212.989 53.2742 212.989 50.8527C212.989 48.454 214.796 46.6123 217.354 46.6123C219.832 46.6123 221.765 48.3744 221.765 50.8073C221.765 53.1946 219.992 55.0363 217.422 55.0363ZM217.513 54.5702C219.184 54.5702 220.264 53.1037 220.264 51.0915C220.264 49.0793 219.219 47.0784 217.263 47.0784C215.581 47.0784 214.489 48.579 214.489 50.5458C214.489 52.5807 215.558 54.5702 217.513 54.5702Z" fill="white"/>
<path d="M228.148 53.0355L228.216 53.0468C228.148 53.6721 228.148 54.286 228.216 54.934C227.25 54.8658 226.34 54.8544 225.59 54.8544C224.885 54.8544 223.476 54.8658 222.703 54.9226V54.8544C223.351 54.718 223.623 54.502 223.658 53.8426C223.714 52.7854 223.714 52.1146 223.714 50.83C223.714 49.6477 223.714 48.8178 223.646 47.7946C223.612 47.2148 223.351 46.942 222.691 46.8056V46.7374C223.271 46.7715 223.896 46.8056 224.408 46.8056C224.931 46.8056 225.556 46.7715 226.124 46.7374V46.8056C225.454 46.942 225.215 47.2148 225.181 47.7833C225.113 48.9428 225.101 49.5113 225.101 50.83C225.101 52.1033 225.113 52.99 225.147 53.4902C225.192 54.3087 225.886 54.3656 226.545 54.3656C227.511 54.3656 227.921 54.0927 228.148 53.0355Z" fill="white"/>
</g>
<defs>
<clipPath id="clip0_2581_205">
<rect width="229.895" height="72" fill="white"/>
</clipPath>
</defs>
</svg>
